<?xml version="1.0" encoding="utf-8"?>
<!-- Generator: Adobe Illustrator 16.0.0, SVG Export Plug-In . SVG Version: 6.00 Build 0)  -->
<!DOCTYPE svg PUBLIC "-//W3C//DTD SVG 1.1//EN" "http://www.w3.org/Graphics/SVG/1.1/DTD/svg11.dtd">
<svg version="1.1" id="Layer_1" xmlns="http://www.w3.org/2000/svg" xmlns:xlink="http://www.w3.org/1999/xlink" x="0px" y="0px"
	 width="1624px" height="868px" viewBox="0 0 1624 868" enable-background="new 0 0 1624 868" xml:space="preserve">
<g>
	<path fill="#FFF9BD" d="M479.283,166.636l37.958,19.648c0,0-17.954,15.942-32.969,5.471
		C469.256,181.283,479.283,166.636,479.283,166.636z"/>
	<path fill="#FFF9BD" d="M552.456,183.943l33.268-21.459c0,0,8.946,18.104-4.372,24.223
		C568.034,192.826,552.456,183.943,552.456,183.943z"/>
</g>
<g>
	<path fill="#FFF9BD" d="M1530.049,456.043l28.505,14.755c0,0-13.481,11.972-24.758,4.107
		C1522.52,467.042,1530.049,456.043,1530.049,456.043z"/>
	<path fill="#FFF9BD" d="M1594.998,469.04l24.982-16.115c0,0,6.718,13.596-3.283,18.19
		C1606.697,475.71,1594.998,469.04,1594.998,469.04z"/>
</g>
<g>
	<path fill="#FFF9BD" d="M961.964,639.686l51.208,26.508c0,0-24.22,21.507-44.477,7.38
		C948.438,659.445,961.964,639.686,961.964,639.686z"/>
	<path fill="#FFF9BD" d="M1060.679,663.036l44.879-28.95c0,0,12.068,24.426-5.897,32.68
		C1081.695,675.02,1060.679,663.036,1060.679,663.036z"/>
</g>
<g>
	<path fill="#FFF9BD" d="M1324.717,560.889l41.217,21.336c0,0-19.494,17.311-35.799,5.94
		C1313.829,576.793,1324.717,560.889,1324.717,560.889z"/>
	<path fill="#FFF9BD" d="M1404.172,579.684l36.123-23.303c0,0,9.714,19.66-4.746,26.305
		C1421.089,589.329,1404.172,579.684,1404.172,579.684z"/>
</g>
<g>
	<path fill="#FFF9BD" d="M1141.354,307.601l33.874,17.534c0,0-12.583,11.642-25.983,2.296
		C1135.846,318.085,1141.354,307.601,1141.354,307.601z"/>
	<path fill="#FFF9BD" d="M1206.654,323.046l37.608-15.445c0,0,0.061,12.451-11.823,17.911
		C1220.555,330.972,1206.654,323.046,1206.654,323.046z"/>
</g>
<g>
	<path fill="#FFF9BD" d="M1.398,464.996l28.342,14.671c0,0-10.528,9.74-21.74,1.921C-3.211,473.769,1.398,464.996,1.398,464.996z"/>
	<path fill="#FFF9BD" d="M66.033,477.919L97.5,464.996c0,0,0.051,10.418-9.893,14.986S66.033,477.919,66.033,477.919z"/>
</g>
<g>
	<path fill="#FFF9BD" d="M1294.632,827.402l52.015,25.25c0,0-19.515,20.733-45.422,7.313
		C1275.318,846.544,1294.632,827.402,1294.632,827.402z"/>
	<path fill="#FFF9BD" d="M1396.31,850.391l49.824-26.075c0,0,13.286,24.968-10.519,34.379
		C1411.81,868.105,1396.31,850.391,1396.31,850.391z"/>
</g>
<g>
	<path fill="#FFF9BD" d="M207.503,529.898l43.528,21.131c0,0-16.331,17.35-38.011,6.12
		C191.34,545.917,207.503,529.898,207.503,529.898z"/>
	<path fill="#FFF9BD" d="M292.591,549.137l41.695-21.821c0,0,11.118,20.894-8.802,28.77
		C305.562,563.961,292.591,549.137,292.591,549.137z"/>
</g>
<g>
	<path fill="#FFF9BD" d="M702.632,493.402l52.015,25.25c0,0-19.515,20.733-45.422,7.313
		C683.318,512.544,702.632,493.402,702.632,493.402z"/>
	<path fill="#FFF9BD" d="M804.31,516.391l49.824-26.075c0,0,13.286,24.968-10.519,34.379
		C819.81,534.105,804.31,516.391,804.31,516.391z"/>
</g>
<g>
	<path fill="#FFF9BD" d="M25.374,808.866l65.113,29.043c0,0-24.429,23.847-56.859,8.412
		C1.197,830.883,25.374,808.866,25.374,808.866z"/>
	<path fill="#FFF9BD" d="M152.656,835.307l62.371-29.991c0,0,16.632,28.719-13.167,39.542
		C172.059,855.683,152.656,835.307,152.656,835.307z"/>
</g>
<g>
	<path fill="#FFF9BD" d="M355,700l63.521,19.31c0,0-19.833,20.429-45.529,6.61C347.296,712.1,355,700,355,700z"/>
	<path fill="#FFF9BD" d="M468.214,717.815l64.242-24.557c0,0-1.122,24.425-25.069,33.467
		C483.438,735.768,468.214,717.815,468.214,717.815z"/>
</g>
<g>
	<path fill="#FFF9BD" d="M937.501,4.167l34.225,10.403c0,0-10.686,11.008-24.53,3.562C933.351,10.687,937.501,4.167,937.501,4.167z"
		/>
	<path fill="#FFF9BD" d="M998.5,13.766l34.612-13.23c0,0-0.604,13.159-13.507,18.031C1006.702,23.438,998.5,13.766,998.5,13.766z"/>
</g>
</svg>
