<?xml version="1.0" encoding="utf-8"?>
<!-- Generator: Adobe Illustrator 16.0.0, SVG Export Plug-In . SVG Version: 6.00 Build 0)  -->
<!DOCTYPE svg PUBLIC "-//W3C//DTD SVG 1.1//EN" "http://www.w3.org/Graphics/SVG/1.1/DTD/svg11.dtd">
<svg version="1.1" id="Layer_1" xmlns="http://www.w3.org/2000/svg" xmlns:xlink="http://www.w3.org/1999/xlink" x="0px" y="0px"
	 width="897px" height="317px" viewBox="0 0 897 317" enable-background="new 0 0 897 317" xml:space="preserve">
<g>
	<g>
		<path fill="#AD551A" d="M657.109,58.218c-0.703-7.109,3.334-13.327,9.017-13.89c5.682-0.56,10.858,4.749,11.562,11.858
			L657.109,58.218z"/>
		<path fill="#AD551A" d="M688.155,54.643c-0.641-7.117,3.45-13.3,9.138-13.811c5.688-0.512,10.816,4.844,11.457,11.959
			L688.155,54.643z"/>
		<path fill="#AD551A" d="M761.468,215.537c0,0-93.687-181.532,27.116-208.387c120.802-26.854,113.129,80.564,84.995,100.6
			c-28.134,20.033-71.781,14.66-79.712-28.689l-8.099,3.965c0,0,8.667,44.189,47.884,45.469c3.144-0.026,14.299-1.032,14.299-1.032
			s27.041,66.1,3.462,87.279c-25.149,22.592-62.829,24.558-62.829,24.558L761.468,215.537z"/>
		<path fill="#E07F2F" d="M707.857,52.322l-95.58,8.94c0,0-3.344,57.733,50.9,57.828C717.422,119.184,707.857,52.322,707.857,52.322
			z"/>
		<path fill="#E07F2F" d="M708.577,52.001l81.88,187.298l-2.275,1.11c0,0-128.466,22.217-138.579-30.639
			c-13.758-56.837,26.19-108.617,26.19-108.617L708.577,52.001z"/>
		<circle fill="#FFFFFF" cx="685.694" cy="81.44" r="13.958"/>
		<circle fill="#332F25" cx="683.835" cy="79.632" r="5.702"/>
		<polygon fill="#FFFFFF" points="645,99 633,99 633,86.436 638.383,80.572 645,86.436 		"/>
		<path fill="#E07F2F" d="M635.609,140.222c11.701,5.248,10.469,21.768,6.043,31.634c-4.424,9.859-11.715,16.994-23.412,11.746
			L635.609,140.222z"/>
		<path fill="#E07F2F" d="M613.359,230.043c0.4-12.685,21.983-17.582,36.844-17.112c14.852,0.47,27.782,4.574,27.379,17.254
			L613.359,230.043z"/>
		<path fill="#E07F2F" d="M659.359,245.043c0.4-12.685,21.983-17.582,36.844-17.112c14.852,0.47,27.782,4.574,27.379,17.254
			L659.359,245.043z"/>
		<path opacity="0.5" fill="#AD551A" d="M701.259,141.357c12.626,2.252,15.444,18.578,13.548,29.223
			c-1.896,10.64-7.235,19.331-19.858,17.079L701.259,141.357z"/>
		<g>
			<g>
				<path d="M630.483,94.59c1.659-4.761,4.798-9.688,8.671-12.936c-0.603,0-1.206,0-1.809,0c3.616,4.602,7.75,8.738,12,12.75
					c1.198,1.131,3.01-0.674,1.809-1.809c-4.25-4.012-8.384-8.148-12-12.75c-0.457-0.582-1.325-0.405-1.809,0
					c-4.224,3.542-7.526,8.893-9.329,14.064C627.473,95.472,629.944,96.137,630.483,94.59L630.483,94.59z"/>
			</g>
		</g>
	</g>
	<g>
		<path fill="#AD551A" d="M236.102,58.218c0.703-7.109-3.334-13.327-9.017-13.89c-5.682-0.56-10.858,4.749-11.562,11.858
			L236.102,58.218z"/>
		<path fill="#AD551A" d="M205.056,54.643c0.641-7.117-3.45-13.3-9.138-13.811c-5.688-0.512-10.816,4.844-11.457,11.959
			L205.056,54.643z"/>
		<path fill="#AD551A" d="M131.743,215.537c0,0,93.687-181.532-27.116-208.387C-16.175-19.704-8.502,87.715,19.632,107.75
			c28.134,20.033,71.781,14.66,79.712-28.689l8.099,3.965c0,0-8.667,44.189-47.884,45.469c-3.144-0.026-14.299-1.032-14.299-1.032
			s-27.041,66.1-3.462,87.279c25.149,22.592,62.829,24.558,62.829,24.558L131.743,215.537z"/>
		<path fill="#E07F2F" d="M185.354,52.322l95.58,8.94c0,0,3.344,57.733-50.9,57.828C175.789,119.184,185.354,52.322,185.354,52.322z
			"/>
		<path fill="#E07F2F" d="M184.634,52.001l-81.88,187.298l2.275,1.11c0,0,128.466,22.217,138.579-30.639
			c13.758-56.837-26.19-108.617-26.19-108.617L184.634,52.001z"/>
		<circle fill="#FFFFFF" cx="207.517" cy="81.44" r="13.958"/>
		<circle fill="#332F25" cx="205.375" cy="77.632" r="5.702"/>
		<polygon fill="#FFFFFF" points="248,99 260,99 260,86.436 254.617,80.572 248,86.436 		"/>
		<path fill="#E07F2F" d="M257.602,140.222c-11.701,5.248-10.469,21.768-6.043,31.634c4.424,9.859,11.715,16.994,23.412,11.746
			L257.602,140.222z"/>
		<path fill="#E07F2F" d="M279.852,230.043c-0.4-12.685-21.983-17.582-36.844-17.112c-14.852,0.47-27.782,4.574-27.379,17.254
			L279.852,230.043z"/>
		<path fill="#E07F2F" d="M233.852,245.043c-0.4-12.685-21.983-17.582-36.844-17.112c-14.852,0.47-27.782,4.574-27.379,17.254
			L233.852,245.043z"/>
		<path opacity="0.5" fill="#AD551A" d="M191.952,141.357c-12.626,2.252-15.444,18.578-13.548,29.223
			c1.896,10.64,7.235,19.331,19.858,17.079L191.952,141.357z"/>
		<g>
			<g>
				<path d="M265.194,93.91c-1.802-5.171-5.104-10.523-9.329-14.064c-0.483-0.405-1.352-0.582-1.809,0
					c-3.616,4.602-7.75,8.738-12,12.75c-1.202,1.134,0.61,2.939,1.809,1.809c4.25-4.012,8.384-8.148,12-12.75
					c-0.603,0-1.206,0-1.809,0c3.873,3.247,7.012,8.175,8.671,12.936C263.267,96.137,265.738,95.472,265.194,93.91L265.194,93.91z"
					/>
			</g>
		</g>
	</g>
	<g>
		<defs>
			<path id="SVGID_1_" d="M556.578,213.166c-6.502,11.037-26.177,11.103-20.153-5.847c-3.688,3.597-11.514,7.786-15.135,3.069
				c-2.651-3.454-0.606-9.115,2.369-11.166c-1.459,6.132-18.424,4.406-22.705,1.003c-3.404-2.705-6.066-8.604-0.737-10.566
				c-7.122,1.07-10.261,3.445-13.101-3.157c-3.587-8.334,2.351-11.089,8.345-15.4c-3.687,0.673-10.634-2.522-11.626-6.569
				C481.92,156.708,497.074,151,503.078,152l-55.056-10.643L384,152c6.003-1,21.159,4.707,19.244,12.531
				c-0.991,4.047-7.939,7.325-11.625,6.652c5.994,4.312,11.934,7.023,8.347,15.357c-2.841,6.603-5.977,4.204-13.099,3.134
				c5.329,1.963,2.673,7.846-0.731,10.551c-4.282,3.403-21.236,5.113-22.696-1.019c2.976,2.051,5.042,7.688,2.392,11.143
				c-3.622,4.717-11.239,0.484-14.928-3.112c6.024,16.949-13.902,16.801-19.902,5.764V299l114,37c0,0,120.334-25.333,120.334-27.333
				S556.578,213.166,556.578,213.166z"/>
		</defs>
		<clipPath id="SVGID_2_">
			<use xlink:href="#SVGID_1_"  overflow="visible"/>
		</clipPath>
		<g clip-path="url(#SVGID_2_)">
			<path fill="#E0B24C" d="M341.266,280.477c0-5.227,2.559-12.223,4.599-14.687c14.208-12.054,54.262-8.859,100-8.859
				c46.938,0,98.147,0.788,101.471,7.839c3.321,7.055,3.127,11.001,3.127,15.706c0,25.103-46.828,32.607-104.598,32.609
				C388.096,313.085,341.266,305.579,341.266,280.477z"/>
			<path fill="#896827" d="M347.613,259.232c0-25.1,44.761-23.543,99.979-23.543c55.217-0.003,99.977-1.558,99.977,23.545
				s-44.715,33.59-99.93,33.59C392.419,292.824,347.613,284.336,347.613,259.232z"/>
			<path fill="#724E15" d="M347.613,259.029c0,25.105,44.806,33.592,100.025,33.592c55.215,0.001,99.93-8.486,99.93-33.591
				c0,0,0.648-4.667-2.619-8.97c-1.43-0.443-1.258,6.276-3.655,7.669c-2.483,1.447-5.238,1.285-6.597,1.622
				c-5.828,1.449-4.507,9-14.161,9.968c-2.815,0.281-8.853-1.431-8.207,4.681c0.645,6.111-16.013,3.375-17.724,3.375
				c-1.463,0-6.727-3.209-14.087-3.377c-4.798-0.107-15.183-1.291-15.743,3.135c-0.562,4.429-7.438,4.986-11.506,5.229
				c-6.834,0.415-9.924-12.552-16.387-5.792c-6.462,6.758-14.027,2.253-24.165,2.734c-5.07,0.243-9.412-9.729-14.522-2.129
				c-5.111,7.602-7.766-3.099-9.456-4.305c-3.379-2.414-9.143-9.498-18.023-6.115c-8.879,3.377-11.185-2.172-14.564-4.105
				C352.773,260.719,347.613,259.029,347.613,259.029z"/>
			<g>
				<ellipse fill="#CC1B1B" cx="448.022" cy="250.063" rx="80.114" ry="19.255"/>
				<ellipse fill="#CC1B1B" cx="448.022" cy="238.477" rx="80.114" ry="19.253"/>
				<rect x="367" y="239" fill="#CC1B1B" width="161" height="13"/>
				<path fill="#AA1111" d="M528,238.752c0,0-12.861,18.978-80.049,18.978c-67.186,0.001-80.036-17.047-80.036-17.047
					s-0.024,7.362-0.024,9.381c0,10.634,35.807,19.255,80.054,19.255c44.245,0.001,80.055-8.621,80.055-19.255
					C528,248.043,528,238.752,528,238.752z"/>
			</g>
			<g>
				<path fill="#88C646" d="M364.006,224.08c-9.918-2.461-22.612,21.636-10.423,27.159c8.805,3.768,16.502-6.566,23.878-5.525
					c6.539,0.702,2.246,7.93,7.056,12.412c6.578,6.372,14.53-0.738,20.381-3.63c6.593-3.76,8.235-3.482,14.562-0.334
					c6.76,3.521,9.676,4.507,17.51,1.053c10.99-4.512,15.113-3.622,26.06,1.597c7.565,3.456,11.413,5.992,17.54,1.456
					c5.354-4.068,5.904-7.352,14.278-3.956c6.262,2.341,7.047,7.142,12.674,1.434c2.599-3.042,3.086-7.134,6.954-9.465
					c4.645-2.797,9.604-1.565,14.53-0.74c2.885,0.588,7.908,2.622,11.098,1.967c1.176-0.499,3.467-2.3,4.273-2.364
					c0.771-0.462,8.891-0.295,10.035-1.193c4.515-4.408-15.712-19.433-14.908-19.496c0.27-6.91-13.262-19.22-20.513-18.646
					c0.593,2.385,1.896,3.499,3.942,3.74c-0.23-8.087-12.142-15.254-18.438-17.998c-12.557-5.094-24.609-3.739-36.309,2.046
					c-7.433,3.421-14.641,9.66-22.567,11.905c-7.929,2.247-13.948-2.143-21.081-5.229c-6.296-2.746-13.797-5.399-20.486-2.847
					c-5.883,2.488-1.633,4.991-9.91,2.806c-10.322-2.429-19.342-3.745-29.061,1.477c-3.901,1.931-11.268,6.156-13.518,12.588
					C349.316,220.725,364.006,224.08,364.006,224.08z"/>
			</g>
			<g>
				<path fill="#A7E55E" d="M367.869,212.495c-9.919-2.462-27.353,15.679-15.165,21.2c8.807,3.77,14.659,2.567,22.035,3.608
					c6.539,0.703,8.83,4.755,13.64,9.238c6.579,6.37,14.545,4.517,20.395,1.627c6.593-3.762,8.221-8.74,14.549-5.595
					c6.761,3.522,11.412,10.938,19.246,7.487c10.99-4.513,13.375-10.052,24.323-4.835c7.565,3.455,17.54,1.455,17.54,1.455
					s5.904-7.354,14.277-3.959c6.264,2.343,7.047,7.143,12.675,1.434c2.599-3.04,3.087-7.131,6.956-9.462
					c4.642-2.8,8.23-2.94,14.266,4.058c6.034,7.002,8.17-2.177,11.36-2.834c1.176-0.497,3.466-2.297,4.272-2.362
					c5.126-6.872-2.777-8.101-1.633-9.003c4.514-4.403-4.043-11.622-3.238-11.686c0.268-6.909-13.263-19.219-20.514-18.648
					c0.594,2.385,1.895,3.498,3.942,3.743c-0.231-8.087-12.142-15.255-18.438-18.001c-12.557-5.093-24.607-3.736-36.309,2.049
					c-7.432,3.42-14.64,9.658-22.566,11.904c-7.928,2.247-13.948-2.143-21.081-5.231c-6.295-2.745-13.797-5.398-20.484-2.845
					c-5.883,2.486-1.634,4.991-9.911,2.807c-10.322-2.428-19.341-3.744-29.061,1.476c-3.901,1.929-11.268,6.154-13.518,12.589
					C353.179,209.139,367.869,212.495,367.869,212.495z"/>
			</g>
			<g>
				<path fill="#E0B24C" d="M550.469,205.604c0,25.102-44.845,30.252-104.082,30.253c-59.237,0-101.579-4.508-101.579-29.608
					c0-25.103,47.78-50.209,107.019-50.209C511.062,156.039,550.469,180.5,550.469,205.604z"/>
				<g>
					<path fill="#F7ECCD" d="M397.732,200.25c-1.042,3.971-2.657,4.328-4.416,3.867c-1.756-0.464-2.989-1.566-1.947-5.538
						c1.041-3.971,5.07-6.354,5.07-6.354S398.775,196.278,397.732,200.25z"/>
					<path fill="#F7ECCD" d="M406.954,181.429c-1.759,3.711-3.414,3.763-5.056,2.984c-1.641-0.776-2.649-2.091-0.888-5.803
						c1.759-3.71,6.16-5.306,6.16-5.306S408.714,177.722,406.954,181.429z"/>
					<path fill="#F7ECCD" d="M375.578,195.325c-2.373,3.349-4.01,3.118-5.494,2.069c-1.482-1.05-2.249-2.516,0.124-5.869
						c2.371-3.352,6.981-4.168,6.981-4.168S377.95,191.974,375.578,195.325z"/>
					<path fill="#F7ECCD" d="M427.283,193.176c0.589,4.065-0.76,5.025-2.558,5.285c-1.796,0.259-3.363-0.277-3.952-4.342
						c-0.589-4.062,2.19-7.828,2.19-7.828S426.696,189.114,427.283,193.176z"/>
					<path fill="#F7ECCD" d="M415.19,217.518c-0.888,4.009-2.489,4.43-4.262,4.033c-1.772-0.393-3.047-1.449-2.158-5.456
						c0.887-4.009,4.821-6.548,4.821-6.548S416.08,213.512,415.19,217.518z"/>
					<path fill="#F7ECCD" d="M451.623,212.06c-1.369,3.875-3.008,4.098-4.722,3.493c-1.71-0.604-2.849-1.805-1.483-5.68
						c1.365-3.871,5.576-5.916,5.576-5.916S452.989,208.19,451.623,212.06z"/>
					<path fill="#F7ECCD" d="M487.104,199.146c0.377,4.088-1.02,4.976-2.829,5.145c-1.807,0.165-3.343-0.448-3.723-4.538
						c-0.378-4.086,2.59-7.709,2.59-7.709S486.727,195.059,487.104,199.146z"/>
					<path fill="#F7ECCD" d="M504.611,215.802c1.217,3.92,0.037,5.079-1.701,5.616c-1.73,0.54-3.362,0.257-4.583-3.665
						c-1.218-3.918,0.937-8.077,0.937-8.077S503.393,211.882,504.611,215.802z"/>
					<path fill="#F7ECCD" d="M492.876,175.874c2.564,3.207,1.89,4.717,0.47,5.851c-1.416,1.135-3.037,1.47-5.605-1.737
						c-2.567-3.205-2.082-7.86-2.082-7.86S490.309,172.671,492.876,175.874z"/>
					<path fill="#F7ECCD" d="M462,187.561c0.377,4.089-1.02,4.977-2.83,5.145c-1.806,0.167-3.343-0.449-3.722-4.539
						c-0.379-4.086,2.59-7.706,2.59-7.706S461.623,183.471,462,187.561z"/>
					<path fill="#F7ECCD" d="M438.683,170.547c-2.992,2.816-4.551,2.264-5.796,0.939c-1.245-1.322-1.704-2.91,1.284-5.729
						c2.988-2.814,7.668-2.705,7.668-2.705S441.671,167.734,438.683,170.547z"/>
					<path fill="#F7ECCD" d="M512.242,191.529c2.365,3.354,1.6,4.82,0.113,5.869c-1.482,1.045-3.123,1.275-5.49-2.076
						c-2.365-3.354-1.598-7.975-1.598-7.975S509.877,188.175,512.242,191.529z"/>
					<path fill="#F7ECCD" d="M535.504,200.433c1.124,3.95-0.084,5.081-1.832,5.578c-1.744,0.5-3.371,0.176-4.497-3.77
						c-1.126-3.95,1.124-8.055,1.124-8.055S534.377,196.486,535.504,200.433z"/>
				</g>
			</g>
		</g>
	</g>
</g>
</svg>
