<?xml version="1.0" encoding="utf-8"?>
<!-- Generator: Adobe Illustrator 16.0.0, SVG Export Plug-In . SVG Version: 6.00 Build 0)  -->
<!DOCTYPE svg PUBLIC "-//W3C//DTD SVG 1.1//EN" "http://www.w3.org/Graphics/SVG/1.1/DTD/svg11.dtd">
<svg version="1.1" id="Layer_1" xmlns="http://www.w3.org/2000/svg" xmlns:xlink="http://www.w3.org/1999/xlink" x="0px" y="0px"
	 width="238.5px" height="176.5px" viewBox="0 0 238.5 176.5" enable-background="new 0 0 238.5 176.5" xml:space="preserve">
<g>
	<path fill="#E0B24C" d="M1.445,137.533c0-5.734,2.807-13.408,5.044-16.111c15.585-13.222,59.524-9.716,109.697-9.717
		c51.49,0,107.665,0.862,111.311,8.599c3.645,7.737,3.433,12.067,3.433,17.229c0,27.536-51.371,35.77-114.743,35.771
		C52.816,173.303,1.445,165.069,1.445,137.533z"/>
	<path fill="#896827" d="M8.408,114.23c0-27.533,49.102-25.828,109.674-25.828c60.57,0,109.671-1.706,109.671,25.828
		c0,27.537-49.051,36.848-109.621,36.848C57.56,151.078,8.408,141.768,8.408,114.23z"/>
	<path fill="#724E15" d="M8.408,114.008c0,27.539,49.152,36.848,109.724,36.848c60.57-0.001,109.621-9.311,109.621-36.848
		c0,0,0.71-5.121-2.872-9.84c-1.569-0.486-1.382,6.885-4.011,8.414c-2.724,1.586-5.746,1.408-7.236,1.778
		c-6.394,1.589-4.943,9.871-15.535,10.933c-3.089,0.31-9.711-1.568-9.003,5.135c0.707,6.705-17.565,3.703-19.442,3.703
		c-1.603,0-7.378-3.52-15.452-3.703c-5.263-0.12-16.653-1.416-17.269,3.438c-0.617,4.857-8.159,5.469-12.621,5.738
		c-7.498,0.453-10.887-13.77-17.977-6.355s-15.387,2.473-26.508,3.002c-5.562,0.266-10.325-10.677-15.931-2.338
		c-5.606,8.339-8.52-3.398-10.373-4.723c-3.707-2.646-10.028-10.416-19.771-6.709c-9.741,3.707-12.27-2.383-15.977-4.501
		C14.069,115.861,8.408,114.008,8.408,114.008z"/>
	<g>
		<ellipse fill="#CC1B1B" cx="118.554" cy="104.17" rx="87.883" ry="21.123"/>
		<ellipse fill="#CC1B1B" cx="118.554" cy="91.46" rx="87.883" ry="21.122"/>
		<rect x="31" y="90" fill="#CC1B1B" width="176" height="15"/>
		<path fill="#AA1111" d="M207,91.764c0,0-14.464,20.818-88.167,20.818c-73.702,0-87.976-18.699-87.976-18.699
			s-0.118,8.072-0.118,10.288c0,11.666,39.592,21.122,88.131,21.122c48.535,0,88.129-9.457,88.129-21.123
			C207,101.955,207,91.764,207,91.764z"/>
	</g>
	<g>
		<path fill="#88C646" d="M26.391,75.669c-10.88-2.7-24.805,23.734-11.435,29.793c9.66,4.132,18.103-7.202,26.195-6.062
			c7.173,0.77,2.462,8.699,7.739,13.616c7.218,6.989,15.94-0.812,22.358-3.982c7.232-4.126,9.033-3.82,15.974-0.368
			c7.417,3.865,10.614,4.943,19.208,1.156c12.056-4.948,16.579-3.972,28.588,1.752c8.298,3.792,12.519,6.572,19.24,1.598
			c5.873-4.463,6.477-8.066,15.662-4.342c6.87,2.568,7.73,7.834,13.904,1.572c2.851-3.336,3.385-7.824,7.628-10.381
			c5.094-3.068,10.536-1.719,15.939-0.812c3.163,0.642,8.676,2.875,12.172,2.155c1.291-0.547,3.803-2.521,4.689-2.592
			c0.845-0.509,9.752-0.322,11.009-1.311c4.952-4.834-17.236-21.315-16.354-21.385c0.294-7.578-14.55-21.083-22.503-20.456
			c0.65,2.614,2.078,3.839,4.326,4.104c-0.255-8.87-13.32-16.733-20.226-19.745c-13.775-5.587-26.997-4.101-39.831,2.246
			c-8.153,3.753-16.059,10.596-24.755,13.061c-8.697,2.463-15.301-2.353-23.124-5.738c-6.906-3.013-15.137-5.923-22.473-3.122
			c-6.452,2.73-1.791,5.477-10.871,3.078c-11.324-2.664-21.217-4.107-31.878,1.62c-4.281,2.116-12.361,6.753-14.829,13.808
			S26.391,75.669,26.391,75.669z"/>
	</g>
	<g>
		<path fill="#A7E55E" d="M30.628,62.959C19.748,60.26,0.624,80.16,13.993,86.217c9.659,4.133,16.079,2.817,24.171,3.959
			c7.173,0.771,9.686,5.214,14.962,10.131c7.217,6.99,15.956,4.957,22.374,1.785c7.232-4.125,9.019-9.588,15.959-6.137
			c7.417,3.865,12.519,12.002,21.113,8.213c12.055-4.947,14.671-11.027,26.681-5.303c8.3,3.791,19.241,1.596,19.241,1.596
			s6.476-8.066,15.662-4.342c6.869,2.569,7.729,7.836,13.903,1.572c2.851-3.335,3.387-7.824,7.63-10.379
			c5.093-3.07,9.029-3.228,15.648,4.451c6.62,7.68,8.964-2.389,12.463-3.109c1.29-0.545,3.801-2.52,4.688-2.592
			c5.622-7.537-3.048-8.886-1.793-9.876c4.952-4.832-4.436-12.749-3.551-12.819c0.294-7.577-14.549-21.082-22.504-20.455
			c0.652,2.615,2.079,3.838,4.326,4.105c-0.254-8.871-13.32-16.735-20.226-19.748c-13.775-5.584-26.996-4.098-39.831,2.248
			c-8.153,3.752-16.059,10.597-24.756,13.061c-8.696,2.463-15.299-2.353-23.123-5.739c-6.905-3.013-15.136-5.923-22.472-3.12
			c-6.453,2.729-1.792,5.475-10.872,3.076c-11.322-2.663-21.216-4.107-31.878,1.621c-4.279,2.115-12.361,6.752-14.828,13.809
			C14.514,59.279,30.628,62.959,30.628,62.959z"/>
	</g>
	<g>
		<path fill="#E0B24C" d="M230.934,55.401c0,27.534-49.192,33.186-114.174,33.187c-64.982,0-111.429-4.946-111.429-32.481
			C5.331,28.57,57.744,1.03,122.726,1.03C187.708,1.029,230.934,27.862,230.934,55.401z"/>
		<g>
			<path fill="#F7ECCD" d="M63.388,49.527c-1.144,4.356-2.915,4.746-4.844,4.24c-1.927-0.505-3.279-1.717-2.135-6.073
				c1.143-4.356,5.561-6.973,5.561-6.973S64.532,45.17,63.388,49.527z"/>
			<path fill="#F7ECCD" d="M73.504,28.882c-1.932,4.07-3.746,4.128-5.547,3.272c-1.801-0.853-2.906-2.295-0.975-6.364
				c1.929-4.071,6.756-5.821,6.756-5.821S75.434,24.814,73.504,28.882z"/>
			<path fill="#F7ECCD" d="M39.085,44.125c-2.602,3.676-4.398,3.422-6.026,2.27c-1.625-1.15-2.467-2.76,0.136-6.438
				c2.6-3.676,7.658-4.572,7.658-4.572S41.687,40.449,39.085,44.125z"/>
			<path fill="#F7ECCD" d="M95.804,41.769c0.646,4.458-0.833,5.511-2.806,5.794c-1.971,0.285-3.689-0.301-4.334-4.76
				c-0.647-4.456,2.402-8.589,2.402-8.589S95.16,37.312,95.804,41.769z"/>
			<path fill="#F7ECCD" d="M82.538,68.469c-0.975,4.398-2.73,4.86-4.676,4.424c-1.944-0.428-3.343-1.587-2.367-5.984
				c0.973-4.398,5.288-7.184,5.288-7.184S83.515,64.074,82.538,68.469z"/>
			<path fill="#F7ECCD" d="M122.503,62.484c-1.5,4.249-3.298,4.493-5.179,3.829c-1.876-0.661-3.125-1.98-1.627-6.229
				c1.496-4.247,6.116-6.491,6.116-6.491S124.003,58.239,122.503,62.484z"/>
			<path fill="#F7ECCD" d="M161.425,48.318c0.414,4.484-1.117,5.458-3.103,5.643c-1.982,0.182-3.668-0.492-4.084-4.979
				c-0.416-4.482,2.841-8.454,2.841-8.454S161.012,43.833,161.425,48.318z"/>
			<path fill="#F7ECCD" d="M180.631,66.586c1.334,4.301,0.039,5.571-1.867,6.163c-1.897,0.592-3.688,0.282-5.027-4.021
				c-1.335-4.3,1.027-8.861,1.027-8.861S179.294,62.285,180.631,66.586z"/>
			<path fill="#F7ECCD" d="M167.757,22.787c2.813,3.518,2.073,5.176,0.516,6.42c-1.554,1.244-3.333,1.609-6.15-1.906
				c-2.815-3.516-2.284-8.623-2.284-8.623S164.942,19.273,167.757,22.787z"/>
			<path fill="#F7ECCD" d="M133.887,35.607c0.413,4.485-1.118,5.46-3.104,5.644c-1.981,0.183-3.667-0.491-4.083-4.979
				c-0.415-4.482,2.84-8.455,2.84-8.455S133.473,31.123,133.887,35.607z"/>
			<path fill="#F7ECCD" d="M108.307,16.944c-3.28,3.089-4.991,2.483-6.356,1.029c-1.365-1.448-1.869-3.192,1.408-6.284
				c3.277-3.086,8.412-2.967,8.412-2.967S111.587,13.857,108.307,16.944z"/>
			<path fill="#F7ECCD" d="M189.001,39.961c2.594,3.681,1.753,5.289,0.124,6.438c-1.626,1.146-3.426,1.401-6.022-2.275
				c-2.594-3.681-1.752-8.748-1.752-8.748S186.406,36.281,189.001,39.961z"/>
			<path fill="#F7ECCD" d="M214.519,49.729c1.232,4.332-0.092,5.573-2.01,6.119c-1.913,0.547-3.697,0.192-4.935-4.138
				c-1.233-4.331,1.233-8.835,1.233-8.835S213.283,45.398,214.519,49.729z"/>
		</g>
	</g>
</g>
</svg>
