<?xml version="1.0" encoding="utf-8"?>
<!-- Generator: Adobe Illustrator 16.0.0, SVG Export Plug-In . SVG Version: 6.00 Build 0)  -->
<!DOCTYPE svg PUBLIC "-//W3C//DTD SVG 1.1//EN" "http://www.w3.org/Graphics/SVG/1.1/DTD/svg11.dtd">
<svg version="1.1" id="Layer_1" xmlns="http://www.w3.org/2000/svg" xmlns:xlink="http://www.w3.org/1999/xlink" x="0px" y="0px"
	 width="454px" height="454px" viewBox="0 0 454 454" enable-background="new 0 0 454 454" xml:space="preserve">
<polygon fill="#FFFFFF" points="227.151,-0.478 255.521,47.093 297.202,10.617 309.484,64.626 360.397,42.815 355.387,97.978 
	410.549,92.968 388.738,143.881 442.748,156.162 406.271,197.844 453.844,226.214 406.271,254.584 442.748,296.266 388.738,308.547 
	410.549,359.46 355.387,354.451 360.397,409.613 309.484,387.803 297.202,441.812 255.521,405.336 227.151,452.908 198.781,405.336 
	157.1,441.812 144.817,387.802 93.904,409.613 98.915,354.451 43.753,359.461 65.563,308.548 11.554,296.267 48.03,254.584 
	0.458,226.215 48.03,197.845 11.554,156.162 65.563,143.881 43.753,92.968 98.915,97.979 93.904,42.816 144.817,64.627 
	157.1,10.617 198.781,47.093 "/>
</svg>
