<?xml version="1.0" encoding="utf-8"?>
<!-- Generator: Adobe Illustrator 16.0.0, SVG Export Plug-In . SVG Version: 6.00 Build 0)  -->
<!DOCTYPE svg PUBLIC "-//W3C//DTD SVG 1.1//EN" "http://www.w3.org/Graphics/SVG/1.1/DTD/svg11.dtd">
<svg version="1.1" id="Layer_1" xmlns="http://www.w3.org/2000/svg" xmlns:xlink="http://www.w3.org/1999/xlink" x="0px" y="0px"
	 width="3050px" height="1130px" viewBox="0 0 3050 1130" enable-background="new 0 0 3050 1130" xml:space="preserve">
<g>
	<path fill="#F7EDDC" d="M616.018,621.983L505.494,723.423c0,0,27.089,28.69,76.933-8.197
		c49.843-36.887,80.185-75.978,80.185-75.978L616.018,621.983z"/>
	<path fill="#F7EDDC" d="M565.639,573.266L455.116,674.705c0,0,27.089,28.689,76.933-8.197s80.185-75.977,80.185-75.977
		L565.639,573.266z"/>
	<path fill="#D8B571" d="M565.639,573.266l-45.597,41.851c0,0,20.544-3.441,34.604,3.959c14.062,7.399,15.687,15.696,15.687,15.696
		c26.646-24.587,41.899-44.239,41.899-44.239L565.639,573.266z"/>
	<path fill="#D8B571" d="M619.662,618.408l-45.598,41.849c0,0,20.545-3.44,34.604,3.959c14.06,7.4,15.687,15.697,15.687,15.697
		c26.645-24.587,41.898-44.239,41.898-44.239L619.662,618.408z"/>
	<g>
		<path fill="#AD551A" d="M1562.273,233.624c-0.056-6.486,4.103-11.782,9.287-11.826c5.183-0.043,9.43,5.178,9.485,11.665
			L1562.273,233.624z"/>
		<path fill="#AD551A" d="M1585.928,233.433c-0.059-6.487,4.1-11.779,9.282-11.825c5.185-0.044,9.433,5.178,9.485,11.664
			L1585.928,233.433z"/>
		
			<rect x="1623.514" y="270.797" transform="matrix(-1 0.008 -0.008 -1 3260.2439 536.8882)" fill="#FFFFFF" width="11.075" height="8.304"/>
		<path fill="#E07F2F" d="M1602.409,282.812c10.946-16.018,41.724-12.138,41.724-12.138c6.217-10.868,9.707-23.581,9.586-38.81
			l-215.347,1.707c1.353,75.776,72.804,75.557,72.804,75.557s14.008-0.11,59.687-0.473c18.771-0.147,42.231-7.668,56.188-16.683
			C1613.066,283.027,1591.461,298.831,1602.409,282.812z"/>
		<circle fill="#FFFFFF" cx="1604.716" cy="250.557" r="11.429"/>
		<circle fill="#332F25" cx="1604.82" cy="249.075" r="4.668"/>
		<path fill="#E07F2F" d="M1591.711,326.634c-10.224,6.601-21.163-0.48-25.635-7.411c-4.471-6.925-5.423-14.931,4.802-21.531
			L1591.711,326.634z"/>
		<path fill="#E07F2F" d="M1623.629,322.938c-10.224,6.602-21.164-0.48-25.636-7.409s-5.421-14.931,4.804-21.531L1623.629,322.938z"
			/>
		<path fill="#E07F2F" d="M1455.956,269.849c4.763,11.201-6.749,21.909-16.188,25.926c-9.44,4.016-19.116,4.281-23.879-6.918
			L1455.956,269.849z"/>
		<path fill="#E07F2F" d="M1474.619,287.422c4.762,11.199-6.752,21.91-16.193,25.924c-9.438,4.015-19.115,4.281-23.877-6.917
			L1474.619,287.422z"/>
		<path fill="#AD551A" d="M1429.896,233.55c-1.832,0.148-51.556,4.961-71.933-13.089c-20.377-18.049-61.177-60.218-105.93-26.477
			c-44.755,33.741-7.468,79.312,12.313,86.067c19.78,6.755,58.645-4.176,51.271-41.044l4.042-0.876
			c9.442,21.845-7.146,34.539-7.146,34.539s23.339,30.233,61.187,18.897c37.85-11.334,57.16-42.851,57.16-42.851
			S1429.457,241.816,1429.896,233.55z"/>
	</g>
	<g>
		<path fill="#AD551A" d="M1427.454,625.59c-0.056-6.486,4.103-11.781,9.287-11.826c5.181-0.043,9.429,5.179,9.485,11.665
			L1427.454,625.59z"/>
		<path fill="#AD551A" d="M1451.107,625.398c-0.059-6.486,4.099-11.779,9.281-11.824c5.185-0.045,9.433,5.178,9.486,11.664
			L1451.107,625.398z"/>
		
			<rect x="1488.659" y="662.861" transform="matrix(-1 0.0079 -0.0079 -1 2993.6387 1322.1489)" fill="#FFFFFF" width="11.076" height="8.305"/>
		<path fill="#E07F2F" d="M1467.589,674.777c10.947-16.019,41.726-12.14,41.726-12.14c6.215-10.866,9.705-23.58,9.584-38.809
			l-215.348,1.707c1.354,75.776,72.805,75.558,72.805,75.558s14.006-0.109,59.687-0.474c18.771-0.147,42.231-7.668,56.188-16.684
			C1478.247,674.993,1456.641,690.797,1467.589,674.777z"/>
		<circle fill="#FFFFFF" cx="1469.896" cy="642.522" r="11.429"/>
		<circle fill="#332F25" cx="1470" cy="641.041" r="4.668"/>
		<path fill="#E07F2F" d="M1456.891,718.6c-10.224,6.601-21.162-0.481-25.635-7.41c-4.47-6.926-5.423-14.932,4.803-21.53
			L1456.891,718.6z"/>
		<path fill="#E07F2F" d="M1488.809,714.904c-10.224,6.602-21.164-0.48-25.636-7.41c-4.473-6.928-5.422-14.932,4.804-21.531
			L1488.809,714.904z"/>
		<path fill="#E07F2F" d="M1321.136,661.814c4.763,11.2-6.749,21.908-16.188,25.926c-9.441,4.016-19.117,4.281-23.88-6.918
			L1321.136,661.814z"/>
		<path fill="#E07F2F" d="M1339.799,679.388c4.762,11.2-6.752,21.91-16.193,25.925c-9.438,4.015-19.115,4.281-23.877-6.918
			L1339.799,679.388z"/>
		<path fill="#AD551A" d="M1295.078,625.516c-1.834,0.148-51.557,4.961-71.934-13.089c-20.377-18.049-61.178-60.218-105.93-26.477
			c-44.755,33.741-7.469,79.312,12.312,86.066c19.781,6.756,58.646-4.176,51.271-41.044l4.043-0.876
			c9.444,21.847-7.146,34.539-7.146,34.539s23.338,30.232,61.186,18.897c37.85-11.334,57.16-42.852,57.16-42.852
			S1294.637,633.781,1295.078,625.516z"/>
	</g>
	<path fill="#897668" d="M1126.962,126.005c0,0-12.188,84.562-59.521,125.251c-47.33,40.688-306.614,83.171-379.688-40.553
		c-21.525-38.657-21.579-81.376-21.579-81.376L1126.962,126.005z"/>
	<path fill="#897668" d="M1089.066,185.82l127.631,116.387c0,0-27.09,28.689-76.934-8.197
		c-49.843-36.887-80.184-75.977-80.184-75.977L1089.066,185.82z"/>
	<path fill="#897668" d="M1008.188,234.538l110.521,101.44c0,0-27.089,28.688-76.934-8.197
		c-49.844-36.886-80.184-75.979-80.184-75.979L1008.188,234.538z"/>
	<path fill="#897668" d="M736.632,234.538l-110.522,101.44c0,0,27.089,28.688,76.932-8.197
		c49.844-36.887,80.184-75.979,80.184-75.979L736.632,234.538z"/>
	<path fill="#897668" d="M686.254,185.82L575.73,287.26c0,0,27.089,28.69,76.933-8.197c49.843-36.887,80.184-75.977,80.184-75.977
		L686.254,185.82z"/>
	<polygon fill="#897668" points="983.165,58 1052.627,58 1067.887,8.357 1117.878,62.732 1162.518,150.425 1054.748,202.236 
		914,133.907 914,61.301 915.354,7.231 	"/>
	<path fill="#897668" d="M683,175.965c0,0-86.089,13.656-155.105-18.454c-69.017-32.109-134.285-26.524-156.705-27.146
		c-22.42-0.623-81.415-15.154,4.112-37.574c85.527-22.42,119.091,9.968,171.405,24.914C599.02,132.65,683,129.198,683,129.198
		V175.965z"/>
	<path fill="#FFFFFF" d="M970.682,106.211l55.356,16.693c0,0-15.985,23.562-43.69,14.414
		C954.643,128.168,970.682,106.211,970.682,106.211z"/>
	<path fill="#FFFFFF" d="M1075.311,118.391l49.823-26.075c0,0,13.286,24.968-10.519,34.379
		C1090.811,136.105,1075.311,118.391,1075.311,118.391z"/>
	<path fill="#423131" d="M1012.197,149.808c0,0,10.797,13.126,29.063,10.103c18.27-3.023,15.177-10.103,15.177-10.103
		s8.638,11.188,23.854,8.996c15.216-2.193,17.664-8.996,17.664-8.996s-2.846,45.118-38.374,45.118
		S1012.197,149.808,1012.197,149.808z"/>
	<circle fill="#423131" cx="996.145" cy="126.141" r="7.197"/>
	<circle fill="#423131" cx="1109.079" cy="116.729" r="7.197"/>
	<polygon fill="#423131" points="1042.646,137.767 1065.62,134.999 1055.795,146.624 	"/>
	<path fill="#D8B571" d="M1006.35,513.451c0,0-12.189,84.562-59.521,125.25c-47.332,40.688-306.615,83.172-379.688-40.553
		c-21.524-38.657-21.577-81.376-21.577-81.376L1006.35,513.451z"/>
	<path fill="#D8B571" d="M968.453,573.266l127.63,116.389c0,0-27.09,28.688-76.933-8.198
		c-49.844-36.887-80.185-75.978-80.185-75.978L968.453,573.266z"/>
	<path fill="#D8B571" d="M887.572,621.983l110.521,101.438c0,0-27.089,28.69-76.933-8.197
		c-49.843-36.887-80.183-75.978-80.183-75.978L887.572,621.983z"/>
	<path fill="#F7EDDC" d="M1006.35,513.451c0,0-12.189,84.562-59.521,125.25c-23.576,20.268-99.744,40.979-179.291,41.375
		c119.879-75.188,31.076-165.128,31.076-165.128L1006.35,513.451z"/>
	<polygon fill="#F7EDDC" points="862.551,446 932.012,446 947.273,396.08 997.264,450.316 1041.902,537.939 934.439,589.717 
		794,521.354 794,448.746 795.048,394.955 	"/>
	<path fill="#D8B571" d="M862.551,446h69.461l15.262-49.92l49.99,54.237l44.64,87.623c0,0-32.183,7.752-64.562-11.037
		c-21.983-12.757-15.797-49.657-49.633-47.127c-11.021,0.823-24.443,30.571-33.22,40.881
		c-18.165,21.342-38.157,31.073-38.157,31.073L794,521.354v-72.606l1.048-53.792L862.551,446z"/>
	<path fill="#BC8D48" d="M652.637,830h69.462l15.262-49.512l49.989,54.44l44.641,87.726c0,0-40.18,8.608-72.559-10.181
		c-21.983-12.756-54.051-64.393-71.321-48.831c-16.017,14.432-20.943,58.87-41.509,64.565C612.324,937.701,584,906.17,584,906.17
		v-72.605l1.091-54.2L652.637,830z"/>
	<path fill="#D8B571" d="M563,563.411c0,0-86.396,13.655-155.413-18.454c-69.016-32.109-134.438-26.524-156.858-27.146
		s-81.493-15.153,4.034-37.574c85.529-22.42,119.362,9.968,171.675,24.915C478.75,520.096,563,516.643,563,516.643V563.411z"/>
	<path fill="#FFFFFF" d="M850.068,493.656l55.354,16.692c0,0-15.985,23.562-43.69,14.413
		C834.027,515.613,850.068,493.656,850.068,493.656z"/>
	<path fill="#FFFFFF" d="M954.695,505.836l49.824-26.075c0,0,13.285,24.968-10.519,34.38
		C970.196,523.551,954.695,505.836,954.695,505.836z"/>
	<path fill="#423131" d="M891.584,537.254c0,0,10.797,13.126,29.064,10.104c18.267-3.023,15.175-10.104,15.175-10.104
		s8.639,11.188,23.854,8.995c15.216-2.193,17.664-8.995,17.664-8.995s-5.852,38.774-41.38,38.774S891.584,537.254,891.584,537.254z"
		/>
	<circle fill="#423131" cx="875.529" cy="513.586" r="7.197"/>
	<circle fill="#423131" cx="988.464" cy="504.175" r="7.197"/>
	<polygon fill="#423131" points="922.032,525.213 945.007,522.444 935.18,534.07 	"/>
	<path fill="#F4EBDC" d="M758.539,958.083l127.631,116.388c0,0-27.09,28.689-76.933-8.197
		c-49.845-36.887-80.185-75.978-80.185-75.978L758.539,958.083z"/>
	<path fill="#F4EBDC" d="M677.659,1006.801l110.521,101.439c0,0-27.089,28.688-76.933-8.197s-80.184-75.979-80.184-75.979
		L677.659,1006.801z"/>
	<path fill="#F4EBDC" d="M406.104,1006.801L295.58,1108.24c0,0,27.09,28.688,76.933-8.197s80.185-75.979,80.185-75.979
		L406.104,1006.801z"/>
	<path fill="#F4EBDC" d="M355.726,958.083l-110.522,101.44c0,0,27.089,28.688,76.932-8.197
		c49.844-36.889,80.185-75.979,80.185-75.979L355.726,958.083z"/>
	<g>
		<path fill="#AD551A" d="M1217.541,1010.406c-0.057-6.485,4.102-11.781,9.287-11.824c5.181-0.044,9.428,5.177,9.484,11.664
			L1217.541,1010.406z"/>
		<path fill="#AD551A" d="M1241.193,1010.216c-0.058-6.484,4.1-11.778,9.281-11.824c5.186-0.045,9.433,5.179,9.487,11.663
			L1241.193,1010.216z"/>
		
			<rect x="1278.711" y="1047.698" transform="matrix(-1 0.0078 -0.0078 -1 2576.6199 2093.7039)" fill="#FFFFFF" width="11.076" height="8.304"/>
		<path fill="#E07F2F" d="M1257.675,1059.595c10.947-16.019,41.726-12.138,41.726-12.138c6.216-10.868,9.705-23.582,9.586-38.809
			l-215.348,1.705c1.353,75.777,72.803,75.559,72.803,75.559s14.008-0.111,59.688-0.475c18.77-0.146,42.232-7.668,56.188-16.683
			C1268.333,1059.811,1246.727,1075.614,1257.675,1059.595z"/>
		<circle fill="#FFFFFF" cx="1259.982" cy="1027.341" r="11.429"/>
		<circle fill="#332F25" cx="1260.087" cy="1025.858" r="4.667"/>
		<path fill="#E07F2F" d="M1246.977,1103.417c-10.224,6.6-21.162-0.481-25.635-7.411c-4.469-6.926-5.422-14.93,4.803-21.53
			L1246.977,1103.417z"/>
		<path fill="#E07F2F" d="M1278.896,1099.722c-10.225,6.602-21.164-0.48-25.637-7.409s-5.423-14.932,4.803-21.531L1278.896,1099.722
			z"/>
		<path fill="#E07F2F" d="M1111.223,1046.632c4.762,11.2-6.75,21.909-16.188,25.927c-9.441,4.016-19.117,4.281-23.879-6.919
			L1111.223,1046.632z"/>
		<path fill="#E07F2F" d="M1129.885,1064.205c4.762,11.199-6.751,21.91-16.193,25.924c-9.438,4.015-19.114,4.281-23.877-6.917
			L1129.885,1064.205z"/>
		<path fill="#AD551A" d="M1085.164,1010.333c-1.833,0.147-51.557,4.962-71.934-13.089c-20.377-18.049-61.177-60.219-105.93-26.478
			c-44.755,33.74-7.468,79.312,12.313,86.068c19.779,6.754,58.645-4.177,51.271-41.045l4.042-0.876
			c9.444,21.846-7.146,34.538-7.146,34.538s23.338,30.234,61.185,18.897c37.851-11.334,57.16-42.852,57.16-42.852
			S1084.723,1018.599,1085.164,1010.333z"/>
	</g>
	<g>
		<path fill="#AD551A" d="M2027.273,233.624c-0.056-6.486,4.103-11.782,9.287-11.826c5.183-0.043,9.43,5.178,9.485,11.665
			L2027.273,233.624z"/>
		<path fill="#AD551A" d="M2050.928,233.433c-0.059-6.487,4.1-11.779,9.282-11.825c5.185-0.044,9.432,5.178,9.486,11.664
			L2050.928,233.433z"/>
		
			<rect x="2088.528" y="270.787" transform="matrix(-1 0.008 -0.008 -1 4190.2705 533.0682)" fill="#FFFFFF" width="11.076" height="8.304"/>
		<path fill="#E07F2F" d="M2067.409,282.812c10.946-16.018,41.724-12.138,41.724-12.138c6.216-10.868,9.707-23.581,9.586-38.81
			l-215.348,1.707c1.354,75.776,72.805,75.557,72.805,75.557s14.007-0.11,59.686-0.473c18.771-0.147,42.232-7.668,56.189-16.683
			C2078.066,283.027,2056.461,298.831,2067.409,282.812z"/>
		<circle fill="#FFFFFF" cx="2069.716" cy="250.557" r="11.429"/>
		<circle fill="#332F25" cx="2069.82" cy="249.075" r="4.668"/>
		<path fill="#E07F2F" d="M2056.711,326.634c-10.225,6.601-21.163-0.48-25.635-7.411c-4.471-6.925-5.424-14.931,4.802-21.531
			L2056.711,326.634z"/>
		<path fill="#E07F2F" d="M2088.629,322.938c-10.225,6.602-21.164-0.48-25.636-7.409s-5.421-14.931,4.804-21.531L2088.629,322.938z"
			/>
		<path fill="#E07F2F" d="M1920.956,269.849c4.763,11.201-6.749,21.909-16.188,25.926c-9.44,4.016-19.116,4.281-23.879-6.918
			L1920.956,269.849z"/>
		<path fill="#E07F2F" d="M1939.619,287.422c4.762,11.199-6.752,21.91-16.193,25.924c-9.438,4.015-19.115,4.281-23.877-6.917
			L1939.619,287.422z"/>
		<path fill="#AD551A" d="M1894.896,233.55c-1.832,0.148-51.556,4.961-71.933-13.089c-20.377-18.049-61.177-60.218-105.93-26.477
			c-44.755,33.741-7.468,79.312,12.313,86.067c19.78,6.755,58.645-4.176,51.271-41.044l4.042-0.876
			c9.442,21.845-7.146,34.539-7.146,34.539s23.339,30.233,61.187,18.897c37.85-11.334,57.16-42.851,57.16-42.851
			S1894.457,241.816,1894.896,233.55z"/>
	</g>
	<g>
		<path fill="#AD551A" d="M1892.454,625.59c-0.056-6.486,4.103-11.781,9.287-11.826c5.181-0.043,9.429,5.179,9.485,11.665
			L1892.454,625.59z"/>
		<path fill="#AD551A" d="M1916.107,625.398c-0.059-6.486,4.099-11.779,9.281-11.824c5.185-0.045,9.433,5.178,9.486,11.664
			L1916.107,625.398z"/>
		
			<rect x="1953.673" y="662.878" transform="matrix(-1 0.0079 -0.0079 -1 3923.6536 1318.493)" fill="#FFFFFF" width="11.076" height="8.306"/>
		<path fill="#E07F2F" d="M1932.589,674.777c10.947-16.019,41.726-12.14,41.726-12.14c6.215-10.866,9.705-23.58,9.584-38.809
			l-215.348,1.707c1.354,75.776,72.805,75.558,72.805,75.558s14.006-0.109,59.687-0.474c18.771-0.147,42.231-7.668,56.188-16.684
			C1943.247,674.993,1921.641,690.797,1932.589,674.777z"/>
		<circle fill="#FFFFFF" cx="1934.896" cy="642.522" r="11.429"/>
		<circle fill="#332F25" cx="1935" cy="641.041" r="4.668"/>
		<path fill="#E07F2F" d="M1921.891,718.6c-10.224,6.601-21.162-0.481-25.635-7.41c-4.47-6.926-5.423-14.932,4.803-21.53
			L1921.891,718.6z"/>
		<path fill="#E07F2F" d="M1953.809,714.904c-10.224,6.602-21.164-0.48-25.636-7.41c-4.473-6.928-5.422-14.932,4.804-21.531
			L1953.809,714.904z"/>
		<path fill="#E07F2F" d="M1786.136,661.814c4.763,11.2-6.749,21.908-16.188,25.926c-9.441,4.016-19.117,4.281-23.88-6.918
			L1786.136,661.814z"/>
		<path fill="#E07F2F" d="M1804.799,679.388c4.762,11.2-6.752,21.91-16.193,25.925c-9.438,4.015-19.115,4.281-23.877-6.918
			L1804.799,679.388z"/>
		<path fill="#AD551A" d="M1760.078,625.516c-1.834,0.148-51.557,4.961-71.934-13.089c-20.377-18.049-61.178-60.218-105.93-26.477
			c-44.755,33.741-7.469,79.312,12.312,86.066c19.781,6.756,58.646-4.176,51.271-41.044l4.043-0.876
			c9.444,21.847-7.146,34.539-7.146,34.539s23.338,30.232,61.186,18.897c37.85-11.334,57.16-42.852,57.16-42.852
			S1759.637,633.781,1760.078,625.516z"/>
	</g>
	<g>
		<path fill="#AD551A" d="M1682.541,1010.406c-0.057-6.485,4.102-11.781,9.287-11.824c5.181-0.044,9.428,5.177,9.484,11.664
			L1682.541,1010.406z"/>
		<path fill="#AD551A" d="M1706.193,1010.216c-0.058-6.484,4.1-11.778,9.281-11.824c5.186-0.045,9.433,5.179,9.487,11.663
			L1706.193,1010.216z"/>
		
			<rect x="1743.726" y="1047.721" transform="matrix(-1 0.0078 -0.0078 -1 3506.6362 2090.1394)" fill="#FFFFFF" width="11.075" height="8.304"/>
		<path fill="#E07F2F" d="M1722.675,1059.595c10.947-16.019,41.726-12.138,41.726-12.138c6.216-10.868,9.705-23.582,9.586-38.809
			l-215.348,1.705c1.353,75.777,72.803,75.559,72.803,75.559s14.008-0.111,59.688-0.475c18.77-0.146,42.232-7.668,56.188-16.683
			C1733.333,1059.811,1711.727,1075.614,1722.675,1059.595z"/>
		<circle fill="#FFFFFF" cx="1724.982" cy="1027.341" r="11.429"/>
		<circle fill="#332F25" cx="1725.087" cy="1025.858" r="4.667"/>
		<path fill="#E07F2F" d="M1711.977,1103.417c-10.224,6.6-21.162-0.481-25.635-7.411c-4.469-6.926-5.422-14.93,4.803-21.53
			L1711.977,1103.417z"/>
		<path fill="#E07F2F" d="M1743.896,1099.722c-10.225,6.602-21.164-0.48-25.637-7.409s-5.423-14.932,4.803-21.531L1743.896,1099.722
			z"/>
		<path fill="#E07F2F" d="M1576.223,1046.632c4.762,11.2-6.75,21.909-16.188,25.927c-9.441,4.016-19.117,4.281-23.879-6.919
			L1576.223,1046.632z"/>
		<path fill="#E07F2F" d="M1594.885,1064.205c4.762,11.199-6.751,21.91-16.193,25.924c-9.438,4.015-19.114,4.281-23.877-6.917
			L1594.885,1064.205z"/>
		<path fill="#AD551A" d="M1550.164,1010.333c-1.833,0.147-51.557,4.962-71.934-13.089c-20.377-18.049-61.177-60.219-105.93-26.478
			c-44.755,33.74-7.468,79.312,12.313,86.068c19.78,6.754,58.645-4.177,51.271-41.045l4.042-0.876
			c9.444,21.846-7.146,34.538-7.146,34.538s23.338,30.234,61.185,18.897c37.851-11.334,57.16-42.852,57.16-42.852
			S1549.723,1018.599,1550.164,1010.333z"/>
	</g>
	<g>
		<path fill="#AD551A" d="M2490.273,233.624c-0.056-6.486,4.103-11.782,9.287-11.826c5.183-0.043,9.43,5.178,9.485,11.665
			L2490.273,233.624z"/>
		<path fill="#AD551A" d="M2513.928,233.433c-0.059-6.487,4.1-11.779,9.282-11.825c5.185-0.044,9.432,5.178,9.486,11.664
			L2513.928,233.433z"/>
		
			<rect x="2551.543" y="270.778" transform="matrix(-1 0.008 -0.008 -1 5116.2729 529.4456)" fill="#FFFFFF" width="11.075" height="8.304"/>
		<path fill="#E07F2F" d="M2530.409,282.812c10.946-16.018,41.724-12.138,41.724-12.138c6.216-10.868,9.707-23.581,9.586-38.81
			l-215.347,1.707c1.353,75.776,72.804,75.557,72.804,75.557s14.007-0.11,59.686-0.473c18.771-0.147,42.232-7.668,56.189-16.683
			C2541.066,283.027,2519.461,298.831,2530.409,282.812z"/>
		<circle fill="#FFFFFF" cx="2532.716" cy="250.557" r="11.429"/>
		<circle fill="#332F25" cx="2532.82" cy="249.075" r="4.668"/>
		<path fill="#E07F2F" d="M2519.711,326.634c-10.225,6.601-21.163-0.48-25.635-7.411c-4.471-6.925-5.424-14.931,4.802-21.531
			L2519.711,326.634z"/>
		<path fill="#E07F2F" d="M2551.629,322.938c-10.225,6.602-21.164-0.48-25.636-7.409s-5.421-14.931,4.804-21.531L2551.629,322.938z"
			/>
		<path fill="#E07F2F" d="M2383.956,269.849c4.763,11.201-6.749,21.909-16.188,25.926c-9.44,4.016-19.116,4.281-23.879-6.918
			L2383.956,269.849z"/>
		<path fill="#E07F2F" d="M2402.619,287.422c4.762,11.199-6.752,21.91-16.193,25.924c-9.439,4.015-19.116,4.281-23.877-6.917
			L2402.619,287.422z"/>
		<path fill="#AD551A" d="M2357.896,233.55c-1.832,0.148-51.556,4.961-71.933-13.089c-20.377-18.049-61.177-60.218-105.93-26.477
			c-44.754,33.741-7.468,79.312,12.313,86.067c19.78,6.755,58.645-4.176,51.271-41.044l4.042-0.876
			c9.442,21.845-7.146,34.539-7.146,34.539s23.338,30.233,61.187,18.897c37.85-11.334,57.16-42.851,57.16-42.851
			S2357.457,241.816,2357.896,233.55z"/>
	</g>
	<g>
		<path fill="#AD551A" d="M2951.273,233.624c-0.056-6.486,4.103-11.782,9.287-11.826c5.183-0.043,9.43,5.178,9.485,11.665
			L2951.273,233.624z"/>
		<path fill="#AD551A" d="M2974.928,233.433c-0.059-6.487,4.1-11.779,9.282-11.825c5.185-0.044,9.432,5.178,9.486,11.664
			L2974.928,233.433z"/>
		
			<rect x="3012.557" y="270.769" transform="matrix(-1 0.008 -0.008 -1 6038.2881 525.7505)" fill="#FFFFFF" width="11.076" height="8.304"/>
		<path fill="#E07F2F" d="M2991.409,282.812c10.946-16.018,41.724-12.138,41.724-12.138c6.216-10.868,9.707-23.581,9.586-38.81
			l-215.347,1.707c1.353,75.776,72.804,75.557,72.804,75.557s14.007-0.11,59.686-0.473c18.771-0.147,42.232-7.668,56.189-16.683
			C3002.066,283.027,2980.461,298.831,2991.409,282.812z"/>
		<circle fill="#FFFFFF" cx="2993.716" cy="250.557" r="11.429"/>
		<circle fill="#332F25" cx="2993.82" cy="249.075" r="4.668"/>
		<path fill="#E07F2F" d="M2980.711,326.634c-10.225,6.601-21.163-0.48-25.635-7.411c-4.471-6.925-5.424-14.931,4.802-21.531
			L2980.711,326.634z"/>
		<path fill="#E07F2F" d="M3012.629,322.938c-10.225,6.602-21.164-0.48-25.636-7.409s-5.421-14.931,4.804-21.531L3012.629,322.938z"
			/>
		<path fill="#E07F2F" d="M2844.956,269.849c4.763,11.201-6.749,21.909-16.188,25.926c-9.44,4.016-19.116,4.281-23.879-6.918
			L2844.956,269.849z"/>
		<path fill="#E07F2F" d="M2863.619,287.422c4.762,11.199-6.752,21.91-16.193,25.924c-9.439,4.015-19.116,4.281-23.877-6.917
			L2863.619,287.422z"/>
		<path fill="#AD551A" d="M2818.896,233.55c-1.832,0.148-51.556,4.961-71.933-13.089c-20.377-18.049-61.177-60.218-105.93-26.477
			c-44.754,33.741-7.468,79.312,12.313,86.067c19.78,6.755,58.645-4.176,51.271-41.044l4.042-0.876
			c9.442,21.845-7.146,34.539-7.146,34.539s23.338,30.233,61.187,18.897c37.85-11.334,57.16-42.851,57.16-42.851
			S2818.457,241.816,2818.896,233.55z"/>
	</g>
	<g>
		<path fill="#AD551A" d="M1673.273,419.624c-0.056-6.486,4.103-11.782,9.287-11.826c5.183-0.043,9.43,5.178,9.485,11.665
			L1673.273,419.624z"/>
		<path fill="#AD551A" d="M1696.928,419.433c-0.059-6.486,4.1-11.778,9.282-11.824c5.185-0.044,9.433,5.178,9.485,11.663
			L1696.928,419.433z"/>
		
			<rect x="1734.52" y="456.8" transform="matrix(-1 0.008 -0.008 -1 3483.7588 907.9286)" fill="#FFFFFF" width="11.076" height="8.305"/>
		<path fill="#E07F2F" d="M1713.409,468.812c10.946-16.019,41.724-12.139,41.724-12.139c6.217-10.868,9.707-23.581,9.586-38.81
			l-215.347,1.707c1.353,75.776,72.804,75.557,72.804,75.557s14.008-0.11,59.687-0.473c18.771-0.147,42.231-7.668,56.188-16.684
			C1724.066,469.027,1702.461,484.831,1713.409,468.812z"/>
		<circle fill="#FFFFFF" cx="1715.716" cy="436.557" r="11.429"/>
		<circle fill="#332F25" cx="1715.82" cy="435.075" r="4.668"/>
		<path fill="#E07F2F" d="M1702.711,512.634c-10.224,6.602-21.163-0.48-25.635-7.411c-4.471-6.925-5.423-14.931,4.802-21.529
			L1702.711,512.634z"/>
		<path fill="#E07F2F" d="M1734.629,508.938c-10.224,6.602-21.164-0.48-25.636-7.409s-5.421-14.932,4.804-21.531L1734.629,508.938z"
			/>
		<path fill="#E07F2F" d="M1566.956,455.849c4.763,11.201-6.749,21.909-16.188,25.927c-9.44,4.016-19.116,4.28-23.879-6.918
			L1566.956,455.849z"/>
		<path fill="#E07F2F" d="M1585.619,473.422c4.762,11.199-6.752,21.91-16.193,25.924c-9.438,4.014-19.115,4.281-23.877-6.917
			L1585.619,473.422z"/>
		<path fill="#AD551A" d="M1540.896,419.55c-1.832,0.148-51.556,4.961-71.933-13.089c-20.377-18.049-61.177-60.218-105.93-26.477
			c-44.755,33.74-7.468,79.312,12.313,86.066c19.78,6.755,58.645-4.176,51.271-41.044l4.042-0.876
			c9.442,21.845-7.146,34.539-7.146,34.539s23.339,30.233,61.187,18.897c37.85-11.334,57.16-42.852,57.16-42.852
			S1540.457,427.816,1540.896,419.55z"/>
	</g>
	<g>
		<path fill="#AD551A" d="M2138.273,419.624c-0.056-6.486,4.103-11.782,9.287-11.826c5.183-0.043,9.43,5.178,9.485,11.665
			L2138.273,419.624z"/>
		<path fill="#AD551A" d="M2161.928,419.433c-0.059-6.486,4.1-11.778,9.282-11.824c5.185-0.044,9.432,5.178,9.486,11.663
			L2161.928,419.433z"/>
		
			<rect x="2199.535" y="456.791" transform="matrix(-1 0.008 -0.008 -1 4413.7729 904.1788)" fill="#FFFFFF" width="11.076" height="8.304"/>
		<path fill="#E07F2F" d="M2178.409,468.812c10.946-16.019,41.724-12.139,41.724-12.139c6.216-10.868,9.707-23.581,9.586-38.81
			l-215.348,1.707c1.354,75.776,72.805,75.557,72.805,75.557s14.007-0.11,59.686-0.473c18.771-0.147,42.232-7.668,56.189-16.684
			C2189.066,469.027,2167.461,484.831,2178.409,468.812z"/>
		<circle fill="#FFFFFF" cx="2180.716" cy="436.557" r="11.429"/>
		<circle fill="#332F25" cx="2180.82" cy="435.075" r="4.668"/>
		<path fill="#E07F2F" d="M2167.711,512.634c-10.225,6.602-21.163-0.48-25.635-7.411c-4.471-6.925-5.424-14.931,4.802-21.529
			L2167.711,512.634z"/>
		<path fill="#E07F2F" d="M2199.629,508.938c-10.225,6.602-21.164-0.48-25.636-7.409s-5.421-14.932,4.804-21.531L2199.629,508.938z"
			/>
		<path fill="#E07F2F" d="M2031.956,455.849c4.763,11.201-6.749,21.909-16.188,25.927c-9.44,4.016-19.116,4.28-23.879-6.918
			L2031.956,455.849z"/>
		<path fill="#E07F2F" d="M2050.619,473.422c4.762,11.199-6.752,21.91-16.193,25.924c-9.439,4.014-19.115,4.281-23.877-6.917
			L2050.619,473.422z"/>
		<path fill="#AD551A" d="M2005.896,419.55c-1.832,0.148-51.556,4.961-71.933-13.089c-20.377-18.049-61.177-60.218-105.93-26.477
			c-44.755,33.74-7.468,79.312,12.313,86.066c19.78,6.755,58.645-4.176,51.271-41.044l4.042-0.876
			c9.442,21.845-7.146,34.539-7.146,34.539s23.339,30.233,61.187,18.897c37.85-11.334,57.16-42.852,57.16-42.852
			S2005.457,427.816,2005.896,419.55z"/>
	</g>
	<g>
		<path fill="#AD551A" d="M2601.273,419.624c-0.056-6.486,4.103-11.782,9.287-11.826c5.183-0.043,9.43,5.178,9.485,11.665
			L2601.273,419.624z"/>
		<path fill="#AD551A" d="M2624.928,419.433c-0.059-6.486,4.1-11.778,9.282-11.824c5.185-0.044,9.432,5.178,9.486,11.663
			L2624.928,419.433z"/>
		
			<rect x="2662.55" y="456.782" transform="matrix(-1 0.0079 -0.0079 -1 5339.7485 900.6808)" fill="#FFFFFF" width="11.076" height="8.304"/>
		<path fill="#E07F2F" d="M2641.409,468.812c10.946-16.019,41.724-12.139,41.724-12.139c6.216-10.868,9.707-23.581,9.586-38.81
			l-215.347,1.707c1.353,75.776,72.804,75.557,72.804,75.557s14.007-0.11,59.686-0.473c18.771-0.147,42.232-7.668,56.189-16.684
			C2652.066,469.027,2630.461,484.831,2641.409,468.812z"/>
		<circle fill="#FFFFFF" cx="2643.716" cy="436.557" r="11.429"/>
		<circle fill="#332F25" cx="2643.82" cy="435.075" r="4.668"/>
		<path fill="#E07F2F" d="M2630.711,512.634c-10.225,6.602-21.163-0.48-25.635-7.411c-4.471-6.925-5.424-14.931,4.802-21.529
			L2630.711,512.634z"/>
		<path fill="#E07F2F" d="M2662.629,508.938c-10.225,6.602-21.164-0.48-25.636-7.409s-5.421-14.932,4.804-21.531L2662.629,508.938z"
			/>
		<path fill="#E07F2F" d="M2494.956,455.849c4.763,11.201-6.749,21.909-16.188,25.927c-9.44,4.016-19.116,4.28-23.879-6.918
			L2494.956,455.849z"/>
		<path fill="#E07F2F" d="M2513.619,473.422c4.762,11.199-6.752,21.91-16.193,25.924c-9.439,4.014-19.116,4.281-23.877-6.917
			L2513.619,473.422z"/>
		<path fill="#AD551A" d="M2468.896,419.55c-1.832,0.148-51.556,4.961-71.933-13.089c-20.377-18.049-61.177-60.218-105.93-26.477
			c-44.754,33.74-7.468,79.312,12.313,86.066c19.78,6.755,58.645-4.176,51.271-41.044l4.042-0.876
			c9.442,21.845-7.146,34.539-7.146,34.539s23.338,30.233,61.187,18.897c37.85-11.334,57.16-42.852,57.16-42.852
			S2468.457,427.816,2468.896,419.55z"/>
	</g>
	<g>
		<path fill="#AD551A" d="M1532.273,822.623c-0.056-6.485,4.103-11.781,9.287-11.825c5.183-0.043,9.43,5.178,9.485,11.665
			L1532.273,822.623z"/>
		<path fill="#AD551A" d="M1555.928,822.434c-0.059-6.486,4.1-11.778,9.282-11.824c5.185-0.044,9.433,5.178,9.485,11.664
			L1555.928,822.434z"/>
		
			<rect x="1593.486" y="859.888" transform="matrix(-1 0.0079 -0.0079 -1 3204.8542 1715.3627)" fill="#FFFFFF" width="11.076" height="8.304"/>
		<path fill="#E07F2F" d="M1572.409,871.812c10.946-16.02,41.724-12.139,41.724-12.139c6.217-10.868,9.707-23.581,9.586-38.81
			l-215.347,1.707c1.353,75.776,72.804,75.558,72.804,75.558s14.008-0.11,59.687-0.474c18.771-0.147,42.231-7.669,56.188-16.684
			C1583.066,872.027,1561.461,887.831,1572.409,871.812z"/>
		<circle fill="#FFFFFF" cx="1574.716" cy="839.557" r="11.429"/>
		<circle fill="#332F25" cx="1574.82" cy="838.075" r="4.668"/>
		<path fill="#E07F2F" d="M1561.711,915.634c-10.224,6.602-21.163-0.48-25.635-7.411c-4.471-6.925-5.423-14.931,4.802-21.529
			L1561.711,915.634z"/>
		<path fill="#E07F2F" d="M1593.629,911.938c-10.224,6.602-21.164-0.48-25.636-7.409s-5.421-14.932,4.804-21.531L1593.629,911.938z"
			/>
		<path fill="#E07F2F" d="M1425.956,858.849c4.763,11.201-6.749,21.909-16.188,25.927c-9.44,4.016-19.116,4.28-23.879-6.918
			L1425.956,858.849z"/>
		<path fill="#E07F2F" d="M1444.619,876.422c4.762,11.199-6.752,21.91-16.193,25.924c-9.438,4.015-19.115,4.281-23.877-6.917
			L1444.619,876.422z"/>
		<path fill="#AD551A" d="M1399.896,822.55c-1.832,0.147-51.556,4.962-71.933-13.089c-20.377-18.049-61.177-60.219-105.93-26.477
			c-44.755,33.74-7.468,79.312,12.313,86.066c19.78,6.755,58.645-4.176,51.271-41.044l4.042-0.876
			c9.442,21.845-7.146,34.539-7.146,34.539s23.339,30.233,61.187,18.897c37.85-11.334,57.16-42.853,57.16-42.853
			S1399.457,830.816,1399.896,822.55z"/>
	</g>
	<g>
		<path fill="#AD551A" d="M1997.273,822.623c-0.056-6.485,4.103-11.781,9.287-11.825c5.183-0.043,9.43,5.178,9.485,11.665
			L1997.273,822.623z"/>
		<path fill="#AD551A" d="M2020.928,822.434c-0.059-6.486,4.1-11.778,9.282-11.824c5.185-0.044,9.433,5.178,9.485,11.664
			L2020.928,822.434z"/>
		
			<rect x="2058.502" y="859.899" transform="matrix(-1 0.008 -0.008 -1 4134.9453 1711.5117)" fill="#FFFFFF" width="11.075" height="8.305"/>
		<path fill="#E07F2F" d="M2037.409,871.812c10.946-16.02,41.724-12.139,41.724-12.139c6.217-10.868,9.707-23.581,9.586-38.81
			l-215.347,1.707c1.353,75.776,72.804,75.558,72.804,75.558s14.007-0.11,59.686-0.474c18.771-0.147,42.232-7.669,56.189-16.684
			C2048.066,872.027,2026.461,887.831,2037.409,871.812z"/>
		<circle fill="#FFFFFF" cx="2039.716" cy="839.557" r="11.429"/>
		<circle fill="#332F25" cx="2039.82" cy="838.075" r="4.668"/>
		<path fill="#E07F2F" d="M2026.711,915.634c-10.224,6.602-21.163-0.48-25.635-7.411c-4.471-6.925-5.423-14.931,4.802-21.529
			L2026.711,915.634z"/>
		<path fill="#E07F2F" d="M2058.629,911.938c-10.225,6.602-21.164-0.48-25.636-7.409s-5.421-14.932,4.804-21.531L2058.629,911.938z"
			/>
		<path fill="#E07F2F" d="M1890.956,858.849c4.763,11.201-6.749,21.909-16.188,25.927c-9.44,4.016-19.116,4.28-23.879-6.918
			L1890.956,858.849z"/>
		<path fill="#E07F2F" d="M1909.619,876.422c4.762,11.199-6.752,21.91-16.193,25.924c-9.438,4.015-19.115,4.281-23.877-6.917
			L1909.619,876.422z"/>
		<path fill="#AD551A" d="M1864.896,822.55c-1.832,0.147-51.556,4.962-71.933-13.089c-20.377-18.049-61.177-60.219-105.93-26.477
			c-44.755,33.74-7.468,79.312,12.313,86.066c19.78,6.755,58.645-4.176,51.271-41.044l4.042-0.876
			c9.442,21.845-7.146,34.539-7.146,34.539s23.339,30.233,61.187,18.897c37.85-11.334,57.16-42.853,57.16-42.853
			S1864.457,830.816,1864.896,822.55z"/>
	</g>
	<g>
		<path fill="#AD551A" d="M2460.273,822.623c-0.056-6.485,4.103-11.781,9.287-11.825c5.183-0.043,9.43,5.178,9.485,11.665
			L2460.273,822.623z"/>
		<path fill="#AD551A" d="M2483.928,822.434c-0.059-6.486,4.1-11.778,9.282-11.824c5.185-0.044,9.432,5.178,9.486,11.664
			L2483.928,822.434z"/>
		
			<rect x="2521.516" y="859.911" transform="matrix(-1 0.008 -0.008 -1 5060.96 1707.8206)" fill="#FFFFFF" width="11.076" height="8.304"/>
		<path fill="#E07F2F" d="M2500.409,871.812c10.946-16.02,41.724-12.139,41.724-12.139c6.216-10.868,9.707-23.581,9.586-38.81
			l-215.347,1.707c1.353,75.776,72.804,75.558,72.804,75.558s14.007-0.11,59.686-0.474c18.771-0.147,42.232-7.669,56.189-16.684
			C2511.066,872.027,2489.461,887.831,2500.409,871.812z"/>
		<circle fill="#FFFFFF" cx="2502.716" cy="839.557" r="11.429"/>
		<circle fill="#332F25" cx="2502.82" cy="838.075" r="4.668"/>
		<path fill="#E07F2F" d="M2489.711,915.634c-10.225,6.602-21.163-0.48-25.635-7.411c-4.471-6.925-5.424-14.931,4.802-21.529
			L2489.711,915.634z"/>
		<path fill="#E07F2F" d="M2521.629,911.938c-10.225,6.602-21.164-0.48-25.636-7.409s-5.421-14.932,4.804-21.531L2521.629,911.938z"
			/>
		<path fill="#E07F2F" d="M2353.956,858.849c4.763,11.201-6.749,21.909-16.188,25.927c-9.44,4.016-19.116,4.28-23.879-6.918
			L2353.956,858.849z"/>
		<path fill="#E07F2F" d="M2372.619,876.422c4.762,11.199-6.752,21.91-16.193,25.924c-9.439,4.015-19.116,4.281-23.877-6.917
			L2372.619,876.422z"/>
		<path fill="#AD551A" d="M2327.896,822.55c-1.832,0.147-51.556,4.962-71.933-13.089c-20.377-18.049-61.177-60.219-105.93-26.477
			c-44.754,33.74-7.468,79.312,12.313,86.066c19.78,6.755,58.645-4.176,51.271-41.044l4.042-0.876
			c9.442,21.845-7.146,34.539-7.146,34.539s23.338,30.233,61.187,18.897c37.85-11.334,57.16-42.853,57.16-42.853
			S2327.457,830.816,2327.896,822.55z"/>
	</g>
	<g>
		<path fill="#AD551A" d="M2355.454,625.59c-0.056-6.486,4.103-11.781,9.287-11.826c5.181-0.043,9.429,5.179,9.485,11.665
			L2355.454,625.59z"/>
		<path fill="#AD551A" d="M2379.107,625.398c-0.059-6.486,4.099-11.779,9.28-11.824c5.186-0.045,9.434,5.178,9.487,11.664
			L2379.107,625.398z"/>
		
			<rect x="2416.687" y="662.895" transform="matrix(-1 0.0078 -0.0078 -1 4849.6094 1315.0662)" fill="#FFFFFF" width="11.076" height="8.305"/>
		<path fill="#E07F2F" d="M2395.589,674.777c10.947-16.019,41.726-12.14,41.726-12.14c6.215-10.866,9.706-23.58,9.585-38.809
			l-215.349,1.707c1.354,75.776,72.805,75.558,72.805,75.558s14.007-0.109,59.687-0.474c18.771-0.147,42.232-7.668,56.189-16.684
			C2406.247,674.993,2384.64,690.797,2395.589,674.777z"/>
		<circle fill="#FFFFFF" cx="2397.896" cy="642.522" r="11.429"/>
		<circle fill="#332F25" cx="2398" cy="641.041" r="4.668"/>
		<path fill="#E07F2F" d="M2384.891,718.6c-10.224,6.601-21.162-0.481-25.635-7.41c-4.47-6.926-5.423-14.932,4.803-21.53
			L2384.891,718.6z"/>
		<path fill="#E07F2F" d="M2416.809,714.904c-10.224,6.602-21.164-0.48-25.636-7.41c-4.473-6.928-5.422-14.932,4.804-21.531
			L2416.809,714.904z"/>
		<path fill="#E07F2F" d="M2249.136,661.814c4.763,11.2-6.749,21.908-16.188,25.926c-9.441,4.016-19.117,4.281-23.879-6.918
			L2249.136,661.814z"/>
		<path fill="#E07F2F" d="M2267.799,679.388c4.762,11.2-6.752,21.91-16.193,25.925c-9.438,4.015-19.115,4.281-23.877-6.918
			L2267.799,679.388z"/>
		<path fill="#AD551A" d="M2223.078,625.516c-1.834,0.148-51.557,4.961-71.935-13.089c-20.377-18.049-61.177-60.218-105.929-26.477
			c-44.755,33.741-7.469,79.312,12.312,86.066c19.78,6.756,58.646-4.176,51.271-41.044l4.043-0.876
			c9.444,21.847-7.146,34.539-7.146,34.539s23.338,30.232,61.186,18.897c37.85-11.334,57.16-42.852,57.16-42.852
			S2222.637,633.781,2223.078,625.516z"/>
	</g>
	<g>
		<path fill="#AD551A" d="M2821.454,625.59c-0.056-6.486,4.103-11.781,9.287-11.826c5.181-0.043,9.429,5.179,9.485,11.665
			L2821.454,625.59z"/>
		<path fill="#AD551A" d="M2845.107,625.398c-0.059-6.486,4.099-11.779,9.28-11.824c5.186-0.045,9.434,5.178,9.487,11.664
			L2845.107,625.398z"/>
		
			<rect x="2882.701" y="662.911" transform="matrix(-1 0.0078 -0.0078 -1 5781.624 1311.4424)" fill="#FFFFFF" width="11.076" height="8.305"/>
		<path fill="#E07F2F" d="M2861.589,674.777c10.947-16.019,41.726-12.14,41.726-12.14c6.215-10.866,9.706-23.58,9.585-38.809
			l-215.349,1.707c1.354,75.776,72.805,75.558,72.805,75.558s14.007-0.109,59.687-0.474c18.771-0.147,42.232-7.668,56.189-16.684
			C2872.247,674.993,2850.64,690.797,2861.589,674.777z"/>
		<circle fill="#FFFFFF" cx="2863.896" cy="642.522" r="11.429"/>
		<circle fill="#332F25" cx="2864" cy="641.041" r="4.668"/>
		<path fill="#E07F2F" d="M2850.891,718.6c-10.224,6.601-21.162-0.481-25.635-7.41c-4.47-6.926-5.423-14.932,4.803-21.53
			L2850.891,718.6z"/>
		<path fill="#E07F2F" d="M2882.809,714.904c-10.224,6.602-21.164-0.48-25.636-7.41c-4.473-6.928-5.422-14.932,4.804-21.531
			L2882.809,714.904z"/>
		<path fill="#E07F2F" d="M2715.136,661.814c4.763,11.2-6.749,21.908-16.188,25.926c-9.441,4.016-19.117,4.281-23.879-6.918
			L2715.136,661.814z"/>
		<path fill="#E07F2F" d="M2733.799,679.388c4.762,11.2-6.752,21.91-16.193,25.925c-9.438,4.015-19.115,4.281-23.877-6.918
			L2733.799,679.388z"/>
		<path fill="#AD551A" d="M2689.078,625.516c-1.834,0.148-51.557,4.961-71.935-13.089c-20.377-18.049-61.177-60.218-105.929-26.477
			c-44.755,33.741-7.469,79.312,12.312,86.066c19.78,6.756,58.646-4.176,51.271-41.044l4.043-0.876
			c9.444,21.847-7.146,34.539-7.146,34.539s23.338,30.232,61.186,18.897c37.85-11.334,57.16-42.852,57.16-42.852
			S2688.637,633.781,2689.078,625.516z"/>
	</g>
	<g>
		<path fill="#AD551A" d="M2145.541,1010.406c-0.057-6.485,4.102-11.781,9.287-11.824c5.181-0.044,9.428,5.177,9.484,11.664
			L2145.541,1010.406z"/>
		<path fill="#AD551A" d="M2169.193,1010.216c-0.057-6.484,4.1-11.778,9.281-11.824c5.186-0.045,9.433,5.179,9.487,11.663
			L2169.193,1010.216z"/>
		
			<rect x="2206.738" y="1047.743" transform="matrix(-1 0.0078 -0.0078 -1 4432.7383 2086.397)" fill="#FFFFFF" width="11.076" height="8.305"/>
		<path fill="#E07F2F" d="M2185.675,1059.595c10.947-16.019,41.726-12.138,41.726-12.138c6.216-10.868,9.706-23.582,9.586-38.809
			l-215.348,1.705c1.353,75.777,72.803,75.559,72.803,75.559s14.008-0.111,59.688-0.475c18.771-0.146,42.232-7.668,56.188-16.683
			C2196.333,1059.811,2174.727,1075.614,2185.675,1059.595z"/>
		<circle fill="#FFFFFF" cx="2187.982" cy="1027.341" r="11.429"/>
		<circle fill="#332F25" cx="2188.087" cy="1025.858" r="4.667"/>
		<path fill="#E07F2F" d="M2174.977,1103.417c-10.224,6.6-21.162-0.481-25.635-7.411c-4.469-6.926-5.422-14.93,4.803-21.53
			L2174.977,1103.417z"/>
		<path fill="#E07F2F" d="M2206.896,1099.722c-10.225,6.602-21.164-0.48-25.637-7.409s-5.423-14.932,4.803-21.531L2206.896,1099.722
			z"/>
		<path fill="#E07F2F" d="M2039.223,1046.632c4.762,11.2-6.75,21.909-16.188,25.927c-9.441,4.016-19.117,4.281-23.879-6.919
			L2039.223,1046.632z"/>
		<path fill="#E07F2F" d="M2057.885,1064.205c4.762,11.199-6.751,21.91-16.193,25.924c-9.438,4.015-19.114,4.281-23.877-6.917
			L2057.885,1064.205z"/>
		<path fill="#AD551A" d="M2013.164,1010.333c-1.833,0.147-51.557,4.962-71.934-13.089c-20.377-18.049-61.177-60.219-105.93-26.478
			c-44.755,33.74-7.468,79.312,12.313,86.068c19.78,6.754,58.645-4.177,51.271-41.045l4.042-0.876
			c9.444,21.846-7.146,34.538-7.146,34.538s23.338,30.234,61.185,18.897c37.851-11.334,57.16-42.852,57.16-42.852
			S2012.723,1018.599,2013.164,1010.333z"/>
	</g>
	<g>
		<path fill="#AD551A" d="M2616.541,1010.406c-0.057-6.485,4.102-11.781,9.287-11.824c5.181-0.044,9.428,5.177,9.484,11.664
			L2616.541,1010.406z"/>
		<path fill="#AD551A" d="M2640.193,1010.216c-0.057-6.484,4.1-11.778,9.281-11.824c5.186-0.045,9.433,5.179,9.487,11.663
			L2640.193,1010.216z"/>
		
			<rect x="2677.753" y="1047.766" transform="matrix(-1 0.0078 -0.0078 -1 5374.6621 2082.9834)" fill="#FFFFFF" width="11.076" height="8.304"/>
		<path fill="#E07F2F" d="M2656.675,1059.595c10.947-16.019,41.726-12.138,41.726-12.138c6.216-10.868,9.706-23.582,9.586-38.809
			l-215.348,1.705c1.353,75.777,72.803,75.559,72.803,75.559s14.008-0.111,59.688-0.475c18.771-0.146,42.232-7.668,56.188-16.683
			C2667.333,1059.811,2645.727,1075.614,2656.675,1059.595z"/>
		<circle fill="#FFFFFF" cx="2658.982" cy="1027.341" r="11.429"/>
		<circle fill="#332F25" cx="2659.087" cy="1025.858" r="4.667"/>
		<path fill="#E07F2F" d="M2645.977,1103.417c-10.224,6.6-21.162-0.481-25.635-7.411c-4.469-6.926-5.422-14.93,4.803-21.53
			L2645.977,1103.417z"/>
		<path fill="#E07F2F" d="M2677.896,1099.722c-10.225,6.602-21.164-0.48-25.637-7.409s-5.423-14.932,4.803-21.531L2677.896,1099.722
			z"/>
		<path fill="#E07F2F" d="M2510.223,1046.632c4.762,11.2-6.75,21.909-16.188,25.927c-9.441,4.016-19.117,4.281-23.879-6.919
			L2510.223,1046.632z"/>
		<path fill="#E07F2F" d="M2528.885,1064.205c4.762,11.199-6.751,21.91-16.193,25.924c-9.438,4.015-19.114,4.281-23.877-6.917
			L2528.885,1064.205z"/>
		<path fill="#AD551A" d="M2484.164,1010.333c-1.833,0.147-51.556,4.962-71.934-13.089c-20.377-18.049-61.177-60.219-105.93-26.478
			c-44.755,33.74-7.468,79.312,12.313,86.068c19.78,6.754,58.645-4.177,51.271-41.045l4.042-0.876
			c9.444,21.846-7.146,34.538-7.146,34.538s23.338,30.234,61.185,18.897c37.851-11.334,57.16-42.852,57.16-42.852
			S2483.723,1018.599,2484.164,1010.333z"/>
	</g>
	<path fill="#F4EBDC" d="M796.436,898.268c0,0-12.189,84.562-59.521,125.251c-47.331,40.688-306.614,83.171-379.687-40.554
		c-21.526-38.656-21.579-81.375-21.579-81.375L796.436,898.268z"/>
	<path fill="#F4EBDC" d="M353,948.229c0,0-86.354,13.655-155.369-18.453c-69.018-32.109-134.417-26.524-156.838-27.147
		c-22.419-0.623-81.481-15.154,4.045-37.574c85.529-22.42,119.324,9.97,171.637,24.914C268.788,904.913,353,901.461,353,901.461
		V948.229z"/>
	<path fill="#BC8D48" d="M365.457,901c0,0,35.355,34.255,47.277,66.146c11.923,31.891,11.153,42.229,70.74,31.13
		C543.062,987.176,599.305,943,567.482,900L365.457,901z"/>
	<path fill="#423131" d="M411.113,901c0,0,6.721,29.06,41.583,35.72s-3.115,42.384,0,52.643
		c9.688,31.892,1.989,53.874,50.403,42.772C551.516,1021.034,485.068,986,525.186,900L411.113,901z"/>
	<polygon fill="#F4EBDC" points="652.637,830 722.099,830 737.359,780.488 787.35,834.93 831.989,922.654 724.484,974.482 
		584,906.17 584,833.562 585.091,779.363 	"/>
	<path fill="#BC8D48" d="M652.637,830h69.462l15.262-49.512l49.989,54.44l44.641,87.726c0,0-40.18,8.608-72.559-10.181
		c-21.983-12.756-54.051-64.393-71.321-48.831c-16.017,14.432-20.943,58.87-41.509,64.565C612.324,937.701,584,906.17,584,906.17
		v-72.605l1.091-54.2L652.637,830z"/>
	<path fill="#FFFFFF" d="M640.154,878.474l55.355,16.693c0,0-15.984,23.562-43.689,14.413
		C624.114,900.432,640.154,878.474,640.154,878.474z"/>
	<path fill="#FFFFFF" d="M744.782,890.653l49.823-26.075c0,0,13.286,24.968-10.519,34.379S744.782,890.653,744.782,890.653z"/>
	<path fill="#423131" d="M681.67,922.071c0,0,10.797,13.126,29.064,10.103c18.269-3.022,15.176-10.103,15.176-10.103
		s8.638,11.188,23.854,8.995c15.217-2.192,17.664-8.995,17.664-8.995s-2.846,45.118-38.374,45.118
		C693.526,967.189,681.67,922.071,681.67,922.071z"/>
	<circle fill="#423131" cx="665.616" cy="898.404" r="7.197"/>
	<circle fill="#423131" cx="778.551" cy="888.992" r="7.197"/>
	<polygon fill="#423131" points="712.119,910.029 735.093,907.262 725.268,918.887 	"/>
	<g>
		<path fill="#423131" d="M235.255,942.666c-12.476-3.126-1.864-21.684-28.135-26.493c-7.686-2.543-3.425-21.138,9.719-26.085
			c-0.144-0.041-0.291-0.08-0.435-0.121c-52.312-14.944-86.053-47.334-171.582-24.914c-85.526,22.42-26.479,36.951-4.062,37.574
			c22.421,0.623,87.789-4.962,156.806,27.147C234.681,947.041,235.255,942.666,235.255,942.666z"/>
		<path fill="#423131" d="M309.296,951c0.024,0,0.049,0,0.073,0C309.345,951,309.32,951,309.296,951z"/>
	</g>
	<path fill="#F7EDDC" d="M963.271,691.461l34.822,31.962c0,0-27.089,28.69-76.933-8.197
		C951.675,708.248,963.271,691.461,963.271,691.461z"/>
	<path fill="#F7EDDC" d="M1061.696,658.16l34.823,31.961c0,0-27.09,28.689-76.934-8.197
		C1050.1,674.946,1061.696,658.16,1061.696,658.16z"/>
</g>
</svg>
