<?xml version="1.0" encoding="utf-8"?>
<!-- Generator: Adobe Illustrator 16.0.0, SVG Export Plug-In . SVG Version: 6.00 Build 0)  -->
<!DOCTYPE svg PUBLIC "-//W3C//DTD SVG 1.1//EN" "http://www.w3.org/Graphics/SVG/1.1/DTD/svg11.dtd">
<svg version="1.1" id="Layer_1" xmlns="http://www.w3.org/2000/svg" xmlns:xlink="http://www.w3.org/1999/xlink" x="0px" y="0px"
	 width="835.82px" height="297.166px" viewBox="0 0 835.82 297.166" enable-background="new 0 0 835.82 297.166"
	 xml:space="preserve">
<g>
	<path fill="#AD551A" d="M655.015,107.771c-0.009-12.823,8.293-23.223,18.541-23.23c10.246-0.007,18.562,10.383,18.57,23.205
		L655.015,107.771z"/>
	<path fill="#AD551A" d="M701.773,107.766c-0.009-12.823,8.293-23.223,18.541-23.229c10.246-0.007,18.562,10.383,18.57,23.205
		L701.773,107.766z"/>
	<rect x="775.32" y="182.555" fill="#FFFFFF" width="22" height="16"/>
	<path fill="#E07F2F" d="M744.07,183.555l72.192-1.347c12.457-21.387,19.558-47.07,19.558-76.653H410.07
		c1.493,150,142.75,151,142.75,151s27.688,0,118,0c37.105,0,71.566-9.291,99.301-26.889
		C742.619,211.762,744.07,183.555,744.07,183.555z"/>
	<circle fill="#FFFFFF" cx="738.654" cy="141.912" r="22.593"/>
	<circle fill="#332F25" cx="738.884" cy="138.982" r="9.229"/>
	<path fill="#E07F2F" d="M711.757,292.102c-20.316,12.887-41.832-1.284-50.564-15.052c-8.73-13.764-10.485-29.602,9.832-42.487
		L711.757,292.102z"/>
	<path fill="#E07F2F" d="M774.912,285.296c-20.315,12.887-41.831-1.284-50.563-15.052c-8.73-13.765-10.485-29.603,9.831-42.488
		L774.912,285.296z"/>
	<path fill="#E07F2F" d="M444.271,177.721c9.239,22.214-13.684,43.206-32.414,50.996c-18.725,7.789-37.857,8.165-47.096-14.049
		L444.271,177.721z"/>
	<path fill="#E07F2F" d="M480.885,212.75c9.239,22.214-13.684,43.207-32.413,50.997c-18.725,7.787-37.857,8.164-47.097-14.051
		L480.885,212.75z"/>
	<path fill="#AD551A" d="M393.32,105.555c-3.628,0.264-102,9-142-27s-120-120-209-54s-16,156.674,23,170.337s116-7.337,102-80.337
		l8-1.667c18.333,43.334-14.667,68.167-14.667,68.167s45.667,60.129,120.667,38.314s113.667-83.814,113.667-83.814
		S392.32,121.888,393.32,105.555z"/>
</g>
</svg>
