<?xml version="1.0" encoding="utf-8"?>
<!-- Generator: Adobe Illustrator 16.0.0, SVG Export Plug-In . SVG Version: 6.00 Build 0)  -->
<!DOCTYPE svg PUBLIC "-//W3C//DTD SVG 1.1//EN" "http://www.w3.org/Graphics/SVG/1.1/DTD/svg11.dtd">
<svg version="1.1" id="Layer_1" xmlns="http://www.w3.org/2000/svg" xmlns:xlink="http://www.w3.org/1999/xlink" x="0px" y="0px"
	 width="2208.335px" height="1009.414px" viewBox="0 0 2208.335 1009.414" enable-background="new 0 0 2208.335 1009.414"
	 xml:space="preserve">
<g>
	<path fill="#EAEAEA" d="M995.831,544.922l-336.023,209.44c0,0,56.331,87.595,203.564,16.124
		c147.231-71.466,244.939-158.13,244.939-158.13L995.831,544.922z"/>
	<path fill="#EAEAEA" d="M888.813,394.055L552.795,603.496c0,0,56.331,87.597,203.562,16.125
		c147.229-71.472,244.939-158.132,244.939-158.132L888.813,394.055z"/>
	<path fill="#918A84" d="M888.813,394.055l-138.627,86.407c0,0,54.968,1.057,87.849,27.089
		c32.88,26.032,33.064,48.345,33.064,48.345c81.071-50.836,130.198-94.406,130.198-94.406L888.813,394.055z"/>
	<path fill="#918A84" d="M1007.022,537.418l-138.628,86.406c0,0,54.97,1.054,87.85,27.088
		c32.879,26.031,33.062,48.344,33.062,48.344c81.07-50.834,130.197-94.401,130.197-94.401L1007.022,537.418z"/>
	<path fill="#918A84" d="M2061.182,453.064c0,0-72.72,213.447-215.283,296c-142.562,82.548-835.847,66.752-965.282-289.73
		c-37.053-110.747-16.429-221.592-16.429-221.592L2061.182,453.064z"/>
	<path fill="#EAEAEA" d="M1933.803,589.821l274.532,363.964c0,0-84.22,61.258-195.593-58.66
		c-111.381-119.916-171.091-236.064-171.091-236.064L1933.803,589.821z"/>
	<path fill="#EAEAEA" d="M1700.303,676.898l237.418,316.868c0,0-84.219,61.265-195.595-58.655
		c-111.377-119.914-171.087-236.067-171.087-236.067L1700.303,676.898z"/>
	<path fill="#EAEAEA" d="M2061.182,453.064c0,0-72.72,213.447-215.283,296c-71.011,41.123-278.674,57.836-485.228,20.202
		c347.532-136.79,160.87-413.273,160.87-413.273L2061.182,453.064z"/>
	<polygon fill="#EAEAEA" points="1720.92,208.197 1901.116,241.955 1964.968,119.871 2068.295,284.864 2141.514,533.875 
		1837.569,615.968 1506.462,370.365 1541.749,182.007 1570.61,42.97 	"/>
	<path fill="#918A84" d="M1720.92,208.197l180.196,33.758l63.852-122.084l103.327,164.993l73.219,249.011
		c0,0-87.256,4.468-162.119-60.01c-50.835-43.775-16.846-136.502-105.855-146.378c-28.994-3.216-78.271,67.433-106.047,89.906
		c-57.497,46.536-114.091,62.066-114.091,62.066l-146.939-109.095l35.287-188.358L1570.61,42.97L1720.92,208.197z"/>
	<path fill="#918A84" d="M886.757,367.207c0,0-230.765-6.562-394.207-123.404C329.116,126.963,156.679,109.654,98.82,97.146
		C40.96,84.635-105.226,18.228,127.546,1.631c232.778-16.596,304.808,83.867,433.255,148.068
		c128.445,64.191,348.686,96.181,348.686,96.181L886.757,367.207z"/>
	<path fill="#FFFFFF" d="M1665.376,325.762l135.491,70.21c0,0-52.923,53.356-120.347,16.155
		C1613.091,374.929,1665.376,325.762,1665.376,325.762z"/>
	<path fill="#FFFFFF" d="M1930.883,408.208l141.928-43.431c0,0,22.33,71.229-43.995,84.073
		C1962.486,461.699,1930.883,408.208,1930.883,408.208z"/>
	<path fill="#423131" d="M1751.887,459.042c0,0,21.631,39.298,70.49,40.333s44.278-18.836,44.278-18.836
		s16.972,33.224,57.511,34.929c40.538,1.708,50.195-14.749,50.195-14.749s-34.025,97.746-126.191,80.48
		C1756.002,563.932,1751.887,459.042,1751.887,459.042z"/>
	<circle fill="#423131" cx="1721.741" cy="389.839" r="18.995"/>
	<path fill="#423131" d="M2037.963,423.807c-1.933,10.31-11.855,17.108-22.165,15.175c-10.313-1.931-17.108-11.857-15.174-22.172
		c1.931-10.31,11.856-17.1,22.167-15.171C2033.105,403.572,2039.896,413.496,2037.963,423.807z"/>
	<polygon fill="#423131" points="1836.729,442.602 1897.676,446.583 1866.53,471.969 	"/>
</g>
</svg>
