<?xml version="1.0" encoding="utf-8"?>
<!-- Generator: Adobe Illustrator 16.0.0, SVG Export Plug-In . SVG Version: 6.00 Build 0)  -->
<!DOCTYPE svg PUBLIC "-//W3C//DTD SVG 1.1//EN" "http://www.w3.org/Graphics/SVG/1.1/DTD/svg11.dtd">
<svg version="1.1" id="Layer_1" xmlns="http://www.w3.org/2000/svg" xmlns:xlink="http://www.w3.org/1999/xlink" x="0px" y="0px"
	 width="606px" height="465px" viewBox="0 0 606 465" enable-background="new 0 0 606 465" xml:space="preserve">
<g>
	<g>
		<path fill="#DDB35F" d="M254.378,148.264l249.89,283.333l-435.285,3.696c0,0-59.947-78.826,22.537-276.433L254.378,148.264z"/>
		<polygon fill="#DDB35F" points="112.047,61.404 215.239,60.84 282.008,5.098 291.133,69.788 317.184,156.974 145.428,228.021 
			0.992,155.672 33.321,65.575 61.649,5.777 		"/>
	</g>
	<path fill="#DDB35F" d="M503.064,432.164c0,0,110.267-18.584,100.882-89.748c-9.384-71.166-114.177-90.717-96.972-160.317
		c10.166-47.704-26.59-32.846-35.191-12.513c-8.603,20.333-0.782,76.64,38.319,111.831s66.473,53.179,53.96,77.421
		c-12.512,24.244-100.882,29.718-100.882,29.718L503.064,432.164z"/>
</g>
<g>
	<path fill="#AD551A" d="M132.979,258.275c0.057,6.354-4.016,11.541-9.097,11.584c-5.075,0.043-9.235-5.072-9.292-11.426
		L132.979,258.275z"/>
	<path fill="#AD551A" d="M109.81,258.463c0.056,6.354-4.017,11.539-9.093,11.583c-5.08,0.044-9.24-5.073-9.295-11.427
		L109.81,258.463z"/>
	
		<rect x="62.196" y="215.265" transform="matrix(-1 0.0078 -0.0078 -1 136.9468 438.131)" fill="#FFFFFF" width="10.85" height="8.135"/>
	<path fill="#E07F2F" d="M87.413,213.658c-8.993,12.625-34.625,8.321-34.625,8.321c-6.089,10.646-9.508,23.101-9.39,38.019
		l210.963-1.672c-1.325-74.234-71.32-74.019-71.32-74.019s-13.723,0.109-58.473,0.464c-18.388,0.144-48.743,8.384-58.661,20.8
		C79.606,214.336,95.233,203.996,87.413,213.658z"/>
	<path fill="#E07F2F" d="M237.135,222.788c-4.666-10.972,6.612-21.463,15.859-25.398c9.25-3.933,18.729-4.194,23.394,6.778
		L237.135,222.788z"/>
	<path fill="#E07F2F" d="M218.854,205.572c-4.667-10.971,6.612-21.463,15.862-25.396c9.248-3.932,18.726-4.194,23.391,6.777
		L218.854,205.572z"/>
	<path fill="#AD551A" d="M240.117,266.045c0.301,1.775,9.239,51.604-6.639,73.031c-15.877,21.426-53.552,64.839-16.806,105.637
		c36.745,40.801,78.04,0.523,82.946-19.357c4.904-19.881-9.077-56.877-44.43-46.535l-1.199-3.871
		c20.514-11.079,34.317,4.027,34.317,4.027s27.515-25.354,13.224-61.322c-14.289-35.971-46.693-52.129-46.693-52.129
		L240.117,266.045z"/>
	<g>
		<path fill="#DDB35F" d="M83.514,234.8c6.214,3.214,11.785,11.355,17.999,13.069"/>
		<g>
			<path fill="#3A2816" d="M82.216,237.02c6.727,3.73,11.098,10.901,18.613,13.329c3.165,1.022,4.509-3.944,1.367-4.959
				c-6.838-2.208-11.164-9.36-17.385-12.81C81.909,230.97,79.316,235.412,82.216,237.02L82.216,237.02z"/>
		</g>
	</g>
	<g>
		<path fill="#DDB35F" d="M82.014,251.727c6.643-6.214,12.428-14.356,17.784-21.641"/>
		<g>
			<path fill="#3A2816" d="M83.832,253.545c6.935-6.636,12.527-14.452,18.187-22.161c1.966-2.678-2.5-5.238-4.44-2.596
				c-5.407,7.365-10.758,14.782-17.382,21.121C77.796,252.205,81.437,255.836,83.832,253.545L83.832,253.545z"/>
		</g>
	</g>
</g>
<circle fill="#332719" cx="229.716" cy="126.731" r="21.533"/>
<circle fill="#332719" cx="90.515" cy="126.731" r="21.532"/>
<circle fill="#FFFFFF" cx="230.935" cy="122.385" r="9.366"/>
<circle fill="#FFFFFF" cx="94.861" cy="122.385" r="9.366"/>
<polygon fill="#FFFFFF" points="120.648,197 127.793,211.879 132.941,197 "/>
<polygon fill="#FFFFFF" points="181.647,197 188.791,211.879 193.94,197 "/>
<g>
	<path fill="#DDB35F" d="M107.877,168.282c-4.172,9.384-2.607,21.375,8.862,26.067c20.333,8.863,34.827-11.47,42.647-28.675
		c2.085,11.471,8.445,27.632,23.044,31.282c13.034,3.128,36.495-15.119,29.195-29.717"/>
	<g>
		<path fill="#3A2816" d="M105.615,167.659c-2.918,7.022-3.055,14.849,0.994,21.453c4.139,6.751,13.095,9.779,20.637,9.717
			c16.921-0.138,27.987-18.583,34.167-31.97c-1.43-0.187-2.859-0.374-4.288-0.561c2.8,14.669,13.276,36.137,31.602,33.091
			c14.131-2.349,31.965-17.734,24.925-33.334c-1.243-2.754-5.286-0.367-4.052,2.368c5.669,12.562-11.704,25.23-22.495,26.472
			c-15.301,1.761-23.191-17.981-25.456-29.844c-0.368-1.926-3.452-2.372-4.288-0.561c-5.311,11.507-12.983,25.082-25.929,28.989
			c-6.7,2.022-14.804-0.386-19.638-5.292c-5.03-5.105-4.158-13.257-1.655-19.282C111.3,166.112,106.758,164.906,105.615,167.659
			L105.615,167.659z"/>
	</g>
</g>
<polygon fill="#443423" points="149.422,150.705 169.391,149.776 159.783,161.097 "/>
</svg>
