<?xml version="1.0" encoding="utf-8"?>
<!-- Generator: Adobe Illustrator 16.0.0, SVG Export Plug-In . SVG Version: 6.00 Build 0)  -->
<!DOCTYPE svg PUBLIC "-//W3C//DTD SVG 1.1//EN" "http://www.w3.org/Graphics/SVG/1.1/DTD/svg11.dtd">
<svg version="1.1" id="Layer_1" xmlns="http://www.w3.org/2000/svg" xmlns:xlink="http://www.w3.org/1999/xlink" x="0px" y="0px"
	 width="1626px" height="928px" viewBox="0 0 1626 928" enable-background="new 0 0 1626 928" xml:space="preserve">
<g>
	<linearGradient id="SVGID_1_" gradientUnits="userSpaceOnUse" x1="111.5747" y1="-124.0654" x2="1514.4258" y2="1053.0664">
		<stop  offset="0.1236" style="stop-color:#000000"/>
		<stop  offset="0.2697" style="stop-color:#5E5B5C"/>
		<stop  offset="0.4467" style="stop-color:#000000"/>
		<stop  offset="1" style="stop-color:#000000"/>
	</linearGradient>
	<path fill="url(#SVGID_1_)" d="M1626,915c0,7.732-6.268,14-14,14H14c-7.732,0-14-6.268-14-14V14C0,6.268,6.268,0,14,0h1598
		c7.732,0,14,6.268,14,14V915z"/>
</g>
<g>
	<path fill="#48A1D8" d="M1532,837c0,4.418-3.582,8-8,8H104c-4.418,0-8-3.582-8-8V90c0-4.418,3.582-8,8-8h1420c4.418,0,8,3.582,8,8
		V837z"/>
</g>
<polygon fill="#4284C6" points="96.202,524.146 154.982,524.146 154.982,586.488 179.252,600.772 179.252,522.717 207.337,509.868 
	207.337,487.499 221.141,484.643 221.141,470.845 240.647,470.845 240.647,484.172 252.556,481.315 252.556,532.713 
	270.635,527.953 270.635,463.713 323.937,463.713 323.937,529.864 335.357,535.094 337.265,526.051 359.159,526.051 
	359.159,422.296 455.294,422.296 455.294,520.343 492.06,520.343 492.06,572.453 502.415,575.662 505.622,483.572 510.264,483.572 
	510.264,468.941 525.967,468.941 530.963,492.496 573.621,492.496 577.551,572.986 595.75,575.662 595.75,530.518 648.519,530.518 
	648.519,548.179 654.705,548.179 652.095,500.351 666.848,497.491 666.848,479.163 733.477,479.163 733.477,497.97 743.941,497.97 
	743.941,558.891 762.508,558.891 759.654,605.535 770.119,602.916 770.119,538.895 773.212,536.28 775.598,520.812 778.217,520.812 
	780.354,510.107 798.438,510.107 806.526,534.378 837.222,534.378 837.222,561.028 849.359,561.028 849.359,546.395 
	883.271,546.395 883.271,528.551 904.094,528.551 904.094,521.533 928.369,521.533 928.369,528.191 940.738,528.191 
	940.738,535.807 1012.128,535.808 1012.128,593.156 1022.12,593.156 1022.12,564.6 1039.615,564.6 1039.615,545.333 
	1047.474,547.461 1047.474,528.551 1081.734,528.551 1081.734,503.916 1129.565,503.916 1129.565,532.475 1135.273,532.475 
	1135.273,598.864 1162.769,598.864 1162.769,609.222 1198.096,609.222 1198.096,532.122 1207.017,532.122 1207.017,510.705 
	1218.802,507.13 1218.802,493.926 1233.079,493.926 1233.079,507.851 1246.646,507.851 1246.646,530.693 1254.851,530.693 
	1254.851,559.247 1279.837,559.247 1279.837,626.477 1298.643,626.477 1298.643,615.521 1322.44,615.521 1327.905,621 
	1343.847,624.088 1343.847,608.389 1388.348,608.389 1388.348,378.989 1397.457,373.814 1397.457,345.613 1413.699,311.17 
	1413.699,274.047 1417.969,205.162 1424.399,274.047 1426.543,311.17 1442.959,345.613 1442.959,367.569 1450.993,375.593 
	1459.735,602.795 1491.868,602.795 1491.868,613.154 1532.555,613.154 1532.555,845.432 96.202,845.432 "/>
</svg>
