<?xml version="1.0" encoding="utf-8"?>
<!-- Generator: Adobe Illustrator 16.0.0, SVG Export Plug-In . SVG Version: 6.00 Build 0)  -->
<!DOCTYPE svg PUBLIC "-//W3C//DTD SVG 1.1//EN" "http://www.w3.org/Graphics/SVG/1.1/DTD/svg11.dtd">
<svg version="1.1" id="Layer_1" xmlns="http://www.w3.org/2000/svg" xmlns:xlink="http://www.w3.org/1999/xlink" x="0px" y="0px"
	 width="470px" height="365px" viewBox="0 0 470 365" enable-background="new 0 0 470 365" xml:space="preserve">
<rect x="2.5" y="2.5" fill="#C5EFEE" stroke="#3A3E49" stroke-width="5" stroke-miterlimit="10" width="465" height="360"/>
<g>
	<path fill="#AD551A" d="M197.109,83.218c-0.704-7.109,3.334-13.327,9.017-13.89c5.682-0.56,10.858,4.749,11.562,11.858
		L197.109,83.218z"/>
	<path fill="#AD551A" d="M228.155,79.643c-0.641-7.117,3.45-13.3,9.138-13.811c5.688-0.512,10.816,4.844,11.457,11.959
		L228.155,79.643z"/>
	<path fill="#AD551A" d="M301.468,240.537c0,0-93.686-181.532,27.116-208.387c120.802-26.854,113.129,80.564,84.995,100.6
		c-28.134,20.033-71.781,14.66-79.712-28.689l-8.099,3.965c0,0,8.667,44.189,47.884,45.469c3.144-0.026,14.299-1.032,14.299-1.032
		s27.041,66.1,3.462,87.279c-25.149,22.592-62.829,24.558-62.829,24.558L301.468,240.537z"/>
	<path fill="#E07F2F" d="M247.857,77.322l-95.581,8.94c0,0-3.343,57.733,50.901,57.828
		C257.422,144.184,247.857,77.322,247.857,77.322z"/>
	<path fill="#E07F2F" d="M248.577,77.001l81.88,187.298l-2.275,1.11c0,0-128.466,22.217-138.579-30.639
		c-13.758-56.837,26.19-108.617,26.19-108.617L248.577,77.001z"/>
	<circle fill="#FFFFFF" cx="225.694" cy="106.44" r="13.958"/>
	<circle fill="#332F25" cx="225.835" cy="104.632" r="5.701"/>
	<polygon fill="#FFFFFF" points="185,124 173,124 173,111.436 178.383,105.572 185,111.436 	"/>
	<g>
		<g>
			<path d="M160.804,103.977c-0.362,13.536,17.47,10.662,19.136-0.726c-0.837-0.113-1.674-0.227-2.512-0.34
				c0.121,5.14,6.52,10.688,11.729,7.924c3.465-1.838,7.236-8.466,2.557-10.947c-1.456-0.772-2.749,1.436-1.291,2.208
				c2.471,1.31-0.582,4.864-1.546,5.876c-3.233,3.394-8.811-1.625-8.891-5.061c-0.033-1.387-2.296-1.812-2.512-0.34
				c-1.211,8.271-14.401,12.205-14.113,1.405C163.406,102.326,160.848,102.331,160.804,103.977L160.804,103.977z"/>
		</g>
	</g>
	<path fill="#E07F2F" d="M193.56,157.299c-4.236,12.104-20.8,12.279-31.006,8.708c-10.2-3.57-17.928-10.229-13.692-22.33
		L193.56,157.299z"/>
	<path opacity="0.5" fill="#AD551A" d="M268.336,162.964c-4.236,12.104-20.801,12.279-31.006,8.708
		c-10.2-3.57-17.928-10.229-13.692-22.33L268.336,162.964z"/>
</g>
<g>
	<path fill="#E0B24C" d="M52.266,300.477c0-5.227,2.559-12.223,4.599-14.687c14.208-12.054,54.262-8.859,100-8.859
		c46.938,0,98.147,0.788,101.471,7.839c3.321,7.055,3.127,11.001,3.127,15.706c0,25.103-46.829,32.607-104.598,32.609
		C99.096,333.085,52.266,325.579,52.266,300.477z"/>
	<path fill="#896827" d="M58.613,279.232c0-25.1,44.761-23.543,99.979-23.543c55.217-0.003,99.977-1.558,99.977,23.545
		s-44.714,33.59-99.93,33.59C103.419,312.824,58.613,304.336,58.613,279.232z"/>
	<path fill="#724E15" d="M58.613,279.029c0,25.105,44.806,33.592,100.025,33.592c55.216,0.001,99.93-8.486,99.93-33.591
		c0,0,0.648-4.667-2.619-8.97c-1.43-0.443-1.258,6.276-3.655,7.669c-2.483,1.447-5.238,1.285-6.597,1.622
		c-5.828,1.449-4.507,9-14.161,9.968c-2.815,0.281-8.853-1.431-8.207,4.681c0.645,6.111-16.013,3.375-17.724,3.375
		c-1.462,0-6.727-3.209-14.086-3.377c-4.797-0.107-15.182-1.291-15.743,3.135c-0.562,4.429-7.438,4.986-11.506,5.229
		c-6.834,0.415-9.924-12.552-16.388-5.792c-6.462,6.758-14.027,2.253-24.165,2.734c-5.07,0.243-9.412-9.729-14.522-2.129
		c-5.111,7.602-7.766-3.099-9.456-4.305c-3.379-2.414-9.143-9.498-18.023-6.115c-8.879,3.377-11.185-2.172-14.564-4.105
		C63.773,280.719,58.613,279.029,58.613,279.029z"/>
	<g>
		<ellipse fill="#CC1B1B" cx="159.022" cy="270.063" rx="80.114" ry="19.255"/>
		<ellipse fill="#CC1B1B" cx="159.022" cy="258.477" rx="80.114" ry="19.253"/>
		<rect x="78" y="259" fill="#CC1B1B" width="161" height="13"/>
		<path fill="#AA1111" d="M239,258.752c0,0-12.861,18.978-80.049,18.978c-67.186,0.001-80.036-17.047-80.036-17.047
			s-0.024,7.362-0.024,9.381c0,10.634,35.807,19.255,80.054,19.255C203.19,289.319,239,280.697,239,270.063
			C239,268.043,239,258.752,239,258.752z"/>
	</g>
	<g>
		<path fill="#88C646" d="M75.006,244.08c-9.918-2.461-22.612,21.636-10.423,27.159c8.805,3.768,16.502-6.566,23.878-5.525
			c6.539,0.702,2.246,7.93,7.056,12.412c6.578,6.372,14.53-0.738,20.381-3.63c6.593-3.76,8.235-3.482,14.562-0.334
			c6.76,3.521,9.676,4.507,17.51,1.053c10.99-4.512,15.113-3.622,26.06,1.597c7.565,3.456,11.413,5.992,17.54,1.456
			c5.354-4.068,5.904-7.352,14.278-3.956c6.263,2.341,7.047,7.142,12.675,1.434c2.598-3.042,3.086-7.134,6.954-9.465
			c4.645-2.797,9.604-1.565,14.53-0.74c2.885,0.588,7.908,2.622,11.098,1.967c1.176-0.499,3.467-2.3,4.273-2.364
			c0.771-0.462,8.891-0.295,10.035-1.193c4.515-4.408-15.712-19.433-14.908-19.496c0.27-6.91-13.262-19.22-20.513-18.646
			c0.593,2.385,1.896,3.499,3.942,3.74c-0.23-8.087-12.142-15.254-18.437-17.998c-12.557-5.094-24.61-3.739-36.31,2.046
			c-7.432,3.421-14.64,9.66-22.566,11.905c-7.929,2.247-13.948-2.143-21.081-5.229c-6.296-2.746-13.797-5.399-20.486-2.847
			c-5.883,2.488-1.633,4.991-9.91,2.806c-10.322-2.429-19.342-3.745-29.061,1.477c-3.901,1.931-11.268,6.156-13.518,12.588
			C60.316,240.725,75.006,244.08,75.006,244.08z"/>
	</g>
	<g>
		<path fill="#A7E55E" d="M78.869,232.495c-9.919-2.462-27.353,15.679-15.165,21.2c8.807,3.77,14.659,2.567,22.035,3.608
			c6.539,0.703,8.83,4.755,13.64,9.238c6.579,6.37,14.545,4.517,20.395,1.627c6.593-3.762,8.221-8.74,14.549-5.595
			c6.761,3.522,11.412,10.938,19.246,7.487c10.99-4.513,13.375-10.052,24.323-4.835c7.565,3.455,17.54,1.455,17.54,1.455
			s5.904-7.354,14.278-3.959c6.263,2.343,7.046,7.143,12.674,1.434c2.599-3.04,3.087-7.131,6.956-9.462
			c4.642-2.8,8.231-2.94,14.266,4.058c6.034,7.002,8.17-2.177,11.36-2.834c1.176-0.497,3.466-2.297,4.272-2.362
			c5.126-6.872-2.777-8.101-1.633-9.003c4.514-4.403-4.043-11.622-3.238-11.686c0.268-6.909-13.263-19.219-20.514-18.648
			c0.594,2.385,1.895,3.498,3.942,3.743c-0.231-8.087-12.142-15.255-18.438-18.001c-12.557-5.093-24.608-3.736-36.309,2.049
			c-7.433,3.42-14.64,9.658-22.567,11.904c-7.928,2.247-13.947-2.143-21.08-5.231c-6.295-2.745-13.797-5.398-20.484-2.845
			c-5.883,2.486-1.634,4.991-9.911,2.807c-10.322-2.428-19.341-3.744-29.061,1.476c-3.901,1.929-11.268,6.154-13.518,12.589
			C64.179,229.139,78.869,232.495,78.869,232.495z"/>
	</g>
	<g>
		<path fill="#E0B24C" d="M261.469,225.604c0,25.102-44.845,30.252-104.082,30.253c-59.237,0-101.579-4.508-101.579-29.608
			c0-25.103,47.78-50.209,107.019-50.209C222.063,176.039,261.469,200.5,261.469,225.604z"/>
		<g>
			<path fill="#F7ECCD" d="M108.732,220.25c-1.042,3.971-2.657,4.328-4.416,3.867c-1.756-0.464-2.989-1.566-1.947-5.538
				c1.041-3.971,5.07-6.354,5.07-6.354S109.775,216.278,108.732,220.25z"/>
			<path fill="#F7ECCD" d="M117.954,201.429c-1.759,3.711-3.414,3.763-5.056,2.984c-1.641-0.776-2.649-2.091-0.888-5.803
				c1.759-3.71,6.16-5.306,6.16-5.306S119.714,197.722,117.954,201.429z"/>
			<path fill="#F7ECCD" d="M86.578,215.325c-2.373,3.349-4.01,3.118-5.494,2.069c-1.482-1.05-2.249-2.516,0.124-5.869
				c2.371-3.352,6.981-4.168,6.981-4.168S88.95,211.974,86.578,215.325z"/>
			<path fill="#F7ECCD" d="M138.283,213.176c0.589,4.065-0.76,5.025-2.558,5.285c-1.796,0.259-3.363-0.277-3.952-4.342
				c-0.589-4.062,2.19-7.828,2.19-7.828S137.696,209.114,138.283,213.176z"/>
			<path fill="#F7ECCD" d="M126.19,237.518c-0.888,4.009-2.489,4.43-4.262,4.033c-1.772-0.393-3.047-1.449-2.158-5.456
				c0.887-4.009,4.821-6.548,4.821-6.548S127.08,233.512,126.19,237.518z"/>
			<path fill="#F7ECCD" d="M162.623,232.06c-1.369,3.875-3.008,4.098-4.722,3.493c-1.71-0.604-2.849-1.805-1.483-5.68
				c1.365-3.871,5.576-5.916,5.576-5.916S163.989,228.19,162.623,232.06z"/>
			<path fill="#F7ECCD" d="M198.104,219.146c0.377,4.088-1.019,4.976-2.829,5.145c-1.807,0.165-3.343-0.448-3.723-4.538
				c-0.378-4.086,2.59-7.709,2.59-7.709S197.727,215.059,198.104,219.146z"/>
			<path fill="#F7ECCD" d="M215.611,235.802c1.216,3.92,0.037,5.079-1.701,5.616c-1.73,0.54-3.362,0.257-4.583-3.665
				c-1.217-3.918,0.936-8.077,0.936-8.077S214.393,231.882,215.611,235.802z"/>
			<path fill="#F7ECCD" d="M203.876,195.874c2.564,3.207,1.89,4.717,0.469,5.851c-1.415,1.135-3.037,1.47-5.605-1.737
				c-2.567-3.205-2.082-7.86-2.082-7.86S201.309,192.671,203.876,195.874z"/>
			<path fill="#F7ECCD" d="M173,207.561c0.377,4.089-1.019,4.977-2.829,5.145c-1.806,0.167-3.343-0.449-3.722-4.539
				c-0.379-4.086,2.59-7.706,2.59-7.706S172.623,203.471,173,207.561z"/>
			<path fill="#F7ECCD" d="M149.683,190.547c-2.992,2.816-4.551,2.264-5.796,0.939c-1.245-1.322-1.704-2.91,1.284-5.729
				c2.988-2.814,7.668-2.705,7.668-2.705S152.671,187.734,149.683,190.547z"/>
			<path fill="#F7ECCD" d="M223.243,211.529c2.364,3.354,1.599,4.82,0.112,5.869c-1.482,1.045-3.123,1.275-5.489-2.076
				c-2.366-3.354-1.598-7.975-1.598-7.975S220.876,208.175,223.243,211.529z"/>
			<path fill="#F7ECCD" d="M246.504,220.433c1.124,3.95-0.084,5.081-1.832,5.578c-1.744,0.5-3.371,0.176-4.497-3.77
				c-1.126-3.95,1.124-8.055,1.124-8.055S245.377,216.486,246.504,220.433z"/>
		</g>
	</g>
</g>
</svg>
