<?xml version="1.0" encoding="utf-8"?>
<!-- Generator: Adobe Illustrator 16.0.0, SVG Export Plug-In . SVG Version: 6.00 Build 0)  -->
<!DOCTYPE svg PUBLIC "-//W3C//DTD SVG 1.1//EN" "http://www.w3.org/Graphics/SVG/1.1/DTD/svg11.dtd">
<svg version="1.1" id="Layer_1" xmlns="http://www.w3.org/2000/svg" xmlns:xlink="http://www.w3.org/1999/xlink" x="0px" y="0px"
	 width="771.732px" height="563.752px" viewBox="0 0 771.732 563.752" enable-background="new 0 0 771.732 563.752"
	 xml:space="preserve">
<g opacity="0.4">
	<path fill="#4C5B72" d="M329.551,190.627l313.996,359.398L202.18,563.752c0,0-210.812-76.122-103.492-351.91L329.551,190.627z"/>
	<polygon fill="#4C5B72" points="158.084,89.988 267.906,89.988 371.008,23.16 371.008,96.375 404.319,207.86 184.691,274.419 
		0,206.196 51.587,81.399 83.204,0 	"/>
	<path fill="#4C5B72" d="M642.008,549.752c0,0,141-23.764,129-114.764s-146-116-124-205c13-61-34-42-45-16s-1,98,49,143s85,68,69,99
		s-129,38-129,38L642.008,549.752z"/>
</g>
<g>
	<path fill="#FFF9BD" d="M110.243,121.105l64.063,31.1c0,0-24.035,25.535-55.943,9.007
		C86.455,144.682,110.243,121.105,110.243,121.105z"/>
	<path fill="#FFF9BD" d="M251.473,149.419l61.365-32.115c0,0,16.363,30.751-12.955,42.343
		C270.562,171.237,251.473,149.419,251.473,149.419z"/>
</g>
</svg>
