<?xml version="1.0" encoding="utf-8"?>
<!-- Generator: Adobe Illustrator 16.0.0, SVG Export Plug-In . SVG Version: 6.00 Build 0)  -->
<!DOCTYPE svg PUBLIC "-//W3C//DTD SVG 1.1//EN" "http://www.w3.org/Graphics/SVG/1.1/DTD/svg11.dtd">
<svg version="1.1" id="Layer_1" xmlns="http://www.w3.org/2000/svg" xmlns:xlink="http://www.w3.org/1999/xlink" x="0px" y="0px"
	 width="565.407px" height="560px" viewBox="0 0 565.407 560" enable-background="new 0 0 565.407 560" xml:space="preserve">
<g>
	<path fill="#FFFFFF" d="M565.407,231c0,11-9,20-20,20h-444c-11,0-20-9-20-20V20c0-11,9-20,20-20h444c11,0,20,9,20,20V231z"/>
</g>
<polygon fill="#FFFFFF" points="91.407,122.589 0,159.295 91.407,196 "/>
<rect x="131.419" y="48.257" fill="none" width="382.978" height="194.673"/>
<text transform="matrix(1 0 0 1 131.4189 81.6963)"><tspan x="0" y="0" font-family="'DroidSans'" font-size="44">Dire circumstances </tspan><tspan x="0" y="58" font-family="'DroidSans'" font-size="44">such as this calls </tspan><tspan x="0" y="116" font-family="'DroidSans'" font-size="44">for drastic action!</tspan></text>
<g>
	<path fill="#FFFFFF" d="M565.407,540c0,11-9,20-20,20h-444c-11,0-20-9-20-20V272c0-11,9-20,20-20h444c11,0,20,9,20,20V540z"/>
</g>
<polygon fill="#FFFFFF" points="91.407,374.589 0,411.295 91.407,448 "/>
<rect x="131.419" y="300.257" fill="none" width="382.978" height="232.929"/>
<text transform="matrix(1 0 0 1 131.4189 333.6963)"><tspan x="0" y="0" font-family="'DroidSans'" font-size="44">There’s only one </tspan><tspan x="0" y="58" font-family="'DroidSans'" font-size="44">solution that will </tspan><tspan x="0" y="116" font-family="'DroidSans'" font-size="44">be effective against </tspan><tspan x="0" y="174" font-family="'DroidSans'" font-size="44">this catastrophe...</tspan></text>
</svg>
