<?xml version="1.0" encoding="utf-8"?>
<!-- Generator: Adobe Illustrator 16.0.0, SVG Export Plug-In . SVG Version: 6.00 Build 0)  -->
<!DOCTYPE svg PUBLIC "-//W3C//DTD SVG 1.1//EN" "http://www.w3.org/Graphics/SVG/1.1/DTD/svg11.dtd">
<svg version="1.1" id="Layer_1" xmlns="http://www.w3.org/2000/svg" xmlns:xlink="http://www.w3.org/1999/xlink" x="0px" y="0px"
	 width="150px" height="110px" viewBox="0 0 150 110" enable-background="new 0 0 150 110" xml:space="preserve">
<g>
	<path fill="#E0B24C" d="M-0.086,86.692c0-3.622,1.773-8.47,3.187-10.178c9.847-8.353,37.604-6.138,69.298-6.138
		c32.527,0,68.014,0.545,70.316,5.432c2.303,4.888,2.168,7.623,2.168,10.884c0,17.396-32.451,22.596-72.484,22.596
		C32.367,109.289-0.086,104.088-0.086,86.692z"/>
	<path fill="#896827" d="M4.312,71.972c0-17.394,31.019-16.316,69.283-16.316c38.264,0,69.281-1.078,69.281,16.316
		c0,17.396-30.986,23.277-69.25,23.277S4.312,89.367,4.312,71.972z"/>
	<path fill="#724E15" d="M4.312,71.831c0,17.396,31.051,23.276,69.314,23.276c38.264,0.001,69.25-5.88,69.25-23.276
		c0,0,0.448-3.234-1.815-6.216c-0.99-0.307-0.872,4.35-2.533,5.315c-1.721,1.002-3.629,0.89-4.571,1.124
		c-4.039,1.004-3.123,6.235-9.813,6.905c-1.951,0.196-6.134-0.99-5.688,3.245c0.447,4.234-11.097,2.339-12.282,2.339
		c-1.012,0-4.66-2.224-9.761-2.34c-3.325-0.075-10.521-0.895-10.909,2.171C85.114,87.443,80.35,87.83,77.53,88
		c-4.736,0.287-6.878-8.698-11.355-4.015c-4.479,4.684-9.72,1.562-16.745,1.896c-3.514,0.167-6.523-6.745-10.064-1.478
		c-3.542,5.268-5.382-2.146-6.553-2.982c-2.342-1.673-6.335-6.58-12.489-4.238c-6.153,2.342-7.751-1.505-10.093-2.844
		C7.889,73.002,4.312,71.831,4.312,71.831z"/>
	<g>
		<ellipse fill="#CC1B1B" cx="73.894" cy="65.617" rx="55.517" ry="13.343"/>
		<ellipse fill="#CC1B1B" cx="73.894" cy="57.588" rx="55.517" ry="13.342"/>
		<rect x="19" y="57" fill="#CC1B1B" width="110" height="9"/>
		<path fill="#AA1111" d="M129,57.779c0,0-8.754,13.151-55.312,13.15c-46.559,0-55.385-11.812-55.385-11.812s0.022,5.101,0.022,6.5
			c0,7.369,24.674,13.343,55.337,13.343c30.66,0,55.338-5.974,55.338-13.343C129,64.218,129,57.779,129,57.779z"/>
	</g>
	<g>
		<path fill="#88C646" d="M15.674,47.611C8.8,45.906,0.004,62.604,8.449,66.433c6.103,2.609,11.436-4.55,16.548-3.829
			c4.531,0.486,1.557,5.495,4.889,8.602c4.56,4.415,10.07-0.513,14.124-2.516c4.569-2.605,5.707-2.414,10.092-0.232
			c4.685,2.441,6.704,3.123,12.133,0.73c7.616-3.126,10.473-2.51,18.059,1.106c5.243,2.396,7.91,4.151,12.155,1.009
			c3.71-2.818,4.092-5.095,9.894-2.742c4.34,1.622,4.884,4.949,8.783,0.993c1.801-2.107,2.139-4.942,4.819-6.558
			c3.218-1.938,6.655-1.086,10.069-0.513c1.998,0.405,5.48,1.816,7.689,1.361c0.815-0.345,2.402-1.593,2.961-1.638
			c0.534-0.321,6.162-0.203,6.955-0.827c3.129-3.054-10.889-13.465-10.331-13.51c0.186-4.787-9.19-13.318-14.215-12.922
			c0.412,1.652,1.312,2.425,2.732,2.593c-0.16-5.604-8.414-10.57-12.776-12.474c-8.703-3.528-17.055-2.591-25.162,1.419
			c-5.15,2.371-10.145,6.693-15.639,8.25c-5.493,1.556-9.664-1.486-14.607-3.625c-4.362-1.903-9.562-3.742-14.195-1.973
			c-4.077,1.726-1.132,3.459-6.868,1.945c-7.153-1.683-13.402-2.595-20.138,1.023c-2.704,1.337-7.809,4.266-9.367,8.723
			C5.493,45.287,15.674,47.611,15.674,47.611z"/>
	</g>
	<g>
		<path fill="#A7E55E" d="M18.351,39.582C11.477,37.877-0.604,50.449,7.842,54.275c6.102,2.612,10.157,1.78,15.269,2.5
			c4.532,0.487,6.119,3.295,9.452,6.4c4.56,4.416,10.079,3.131,14.134,1.127c4.568-2.604,5.697-6.057,10.082-3.875
			c4.686,2.44,7.907,7.581,13.337,5.188c7.615-3.125,9.268-6.966,16.854-3.351c5.243,2.396,12.155,1.009,12.155,1.009
			s4.091-5.096,9.894-2.743c4.34,1.624,4.883,4.95,8.782,0.993c1.802-2.105,2.141-4.941,4.82-6.556
			c3.217-1.94,5.704-2.039,9.887,2.812c4.181,4.852,5.662-1.509,7.871-1.964c0.816-0.345,2.402-1.592,2.962-1.638
			c3.552-4.762-1.925-5.613-1.132-6.238c3.128-3.053-2.803-8.054-2.243-8.099c0.186-4.787-9.191-13.317-14.217-12.922
			c0.412,1.652,1.313,2.425,2.732,2.593c-0.16-5.604-8.414-10.572-12.776-12.474c-8.702-3.528-17.054-2.59-25.161,1.419
			c-5.15,2.37-10.146,6.694-15.639,8.25s-9.665-1.486-14.607-3.625c-4.362-1.902-9.562-3.741-14.195-1.972
			c-4.077,1.725-1.133,3.459-6.868,1.944c-7.153-1.683-13.402-2.596-20.139,1.023c-2.703,1.337-7.809,4.266-9.367,8.723
			C8.17,37.258,18.351,39.582,18.351,39.582z"/>
	</g>
	<g>
		<path fill="#E0B24C" d="M144.886,34.809c0,17.394-31.075,20.964-72.125,20.964S2.369,52.648,2.369,35.254
			c0-17.395,33.109-34.793,74.16-34.793S144.886,17.412,144.886,34.809z"/>
		<g>
			<path fill="#F7ECCD" d="M39.045,31.097c-0.723,2.753-1.842,2.999-3.061,2.68c-1.217-0.319-2.071-1.085-1.349-3.837
				c0.722-2.752,3.514-4.405,3.514-4.405S39.768,28.345,39.045,31.097z"/>
			<path fill="#F7ECCD" d="M45.436,18.056c-1.221,2.571-2.366,2.607-3.504,2.066c-1.138-0.538-1.836-1.449-0.616-4.02
				c1.22-2.572,4.269-3.677,4.269-3.677S46.655,15.486,45.436,18.056z"/>
			<path fill="#F7ECCD" d="M23.692,27.685c-1.645,2.322-2.779,2.162-3.808,1.435c-1.026-0.728-1.558-1.743,0.086-4.067
				c1.643-2.322,4.837-2.888,4.837-2.888S25.336,25.363,23.692,27.685z"/>
			<path fill="#F7ECCD" d="M59.522,26.196c0.408,2.816-0.526,3.481-1.772,3.661c-1.245,0.18-2.331-0.191-2.738-3.007
				c-0.408-2.815,1.518-5.426,1.518-5.426S59.115,23.381,59.522,26.196z"/>
			<path fill="#F7ECCD" d="M51.142,43.063c-0.615,2.778-1.725,3.07-2.952,2.795c-1.229-0.271-2.113-1.003-1.496-3.782
				c0.614-2.778,3.34-4.537,3.34-4.537S51.759,40.287,51.142,43.063z"/>
			<path fill="#F7ECCD" d="M76.389,39.283c-0.948,2.684-2.083,2.838-3.271,2.419c-1.186-0.418-1.975-1.251-1.028-3.936
				c0.946-2.683,3.864-4.101,3.864-4.101S77.336,36.602,76.389,39.283z"/>
			<path fill="#F7ECCD" d="M100.976,30.334c0.263,2.833-0.705,3.448-1.959,3.564c-1.253,0.115-2.317-0.311-2.58-3.146
				c-0.263-2.832,1.794-5.341,1.794-5.341S100.716,27.501,100.976,30.334z"/>
			<path fill="#F7ECCD" d="M113.108,41.875c0.844,2.716,0.025,3.519-1.179,3.893c-1.199,0.374-2.329,0.178-3.176-2.54
				c-0.844-2.716,0.648-5.597,0.648-5.597S112.265,39.158,113.108,41.875z"/>
			<path fill="#F7ECCD" d="M104.977,14.206c1.776,2.222,1.309,3.269,0.325,4.055c-0.981,0.787-2.105,1.018-3.886-1.204
				c-1.778-2.221-1.442-5.447-1.442-5.447S103.198,11.986,104.977,14.206z"/>
			<path fill="#F7ECCD" d="M83.579,22.305c0.262,2.834-0.705,3.449-1.96,3.565c-1.252,0.115-2.316-0.311-2.579-3.146
				c-0.262-2.832,1.795-5.341,1.795-5.341S83.318,19.472,83.579,22.305z"/>
			<path fill="#F7ECCD" d="M67.421,10.515c-2.072,1.951-3.153,1.568-4.016,0.65c-0.862-0.916-1.181-2.017,0.89-3.97
				c2.07-1.95,5.313-1.875,5.313-1.875S69.492,8.564,67.421,10.515z"/>
			<path fill="#F7ECCD" d="M118.396,25.055c1.639,2.326,1.108,3.341,0.078,4.067c-1.026,0.725-2.164,0.885-3.805-1.438
				c-1.639-2.324-1.105-5.525-1.105-5.525S116.757,22.73,118.396,25.055z"/>
			<path fill="#F7ECCD" d="M134.517,31.225c0.778,2.737-0.059,3.521-1.27,3.866c-1.209,0.345-2.336,0.121-3.117-2.614
				c-0.779-2.736,0.779-5.582,0.779-5.582S133.735,28.489,134.517,31.225z"/>
		</g>
	</g>
</g>
</svg>
