<?xml version="1.0" encoding="utf-8"?>
<!-- Generator: Adobe Illustrator 16.0.0, SVG Export Plug-In . SVG Version: 6.00 Build 0)  -->
<!DOCTYPE svg PUBLIC "-//W3C//DTD SVG 1.1//EN" "http://www.w3.org/Graphics/SVG/1.1/DTD/svg11.dtd">
<svg version="1.1" id="Layer_1" xmlns="http://www.w3.org/2000/svg" xmlns:xlink="http://www.w3.org/1999/xlink" x="0px" y="0px"
	 width="555px" height="200px" viewBox="0 0 555 200" enable-background="new 0 0 555 200" xml:space="preserve">
<g>
	<path fill="#AD551A" d="M433.318,72.521c-0.007-8.47,5.477-15.339,12.246-15.344c6.768-0.005,12.26,6.857,12.266,15.327
		L433.318,72.521z"/>
	<path fill="#AD551A" d="M464.201,72.518c-0.006-8.47,5.477-15.339,12.246-15.343c6.768-0.005,12.26,6.857,12.266,15.327
		L464.201,72.518z"/>
	<rect x="513" y="122" fill="#FFFFFF" width="14" height="10"/>
	<path fill="#E07F2F" d="M492.138,122.576l47.683-0.918C548.049,107.533,552.738,91,552.738,71H271.532
		c0.985,99,94.286,100,94.286,100s18.286,0,77.938,0c24.509,0,47.271-6.24,65.588-17.863
		C491.18,141.311,492.138,122.576,492.138,122.576z"/>
	<circle fill="#FFFFFF" cx="488.562" cy="95.071" r="14.923"/>
	<circle fill="#332F25" cx="488.712" cy="93.137" r="6.095"/>
	<path fill="#E07F2F" d="M470.795,194.271c-13.418,8.512-27.629-0.849-33.396-9.941c-5.767-9.092-6.926-19.553,6.494-28.063
		L470.795,194.271z"/>
	<path fill="#E07F2F" d="M512.51,189.775c-13.419,8.512-27.631-0.848-33.398-9.941c-5.766-9.092-6.926-19.553,6.494-28.062
		L512.51,189.775z"/>
	<path fill="#E07F2F" d="M294.121,118.723c6.103,14.672-9.038,28.537-21.409,33.683c-12.368,5.146-25.005,5.394-31.107-9.278
		L294.121,118.723z"/>
	<path fill="#E07F2F" d="M318.305,141.859c6.104,14.672-9.037,28.538-21.409,33.684c-12.367,5.144-25.005,5.393-31.106-9.28
		L318.305,141.859z"/>
	<path fill="#AD551A" d="M260.469,71.057c-2.396,0.175-67.371,5.945-93.791-17.833c-26.42-23.778-79.26-79.26-138.045-35.667
		C-30.15,61.149,18.065,121.039,43.824,130.064c25.76,9.023,76.619-4.847,67.371-53.062l5.284-1.102
		c12.109,28.622-9.688,45.024-9.688,45.024s30.163,39.715,79.7,25.307s75.077-55.359,75.077-55.359S259.808,81.846,260.469,71.057z"
		/>
</g>
</svg>
