<?xml version="1.0" encoding="utf-8"?>
<!-- Generator: Adobe Illustrator 16.0.0, SVG Export Plug-In . SVG Version: 6.00 Build 0)  -->
<!DOCTYPE svg PUBLIC "-//W3C//DTD SVG 1.1//EN" "http://www.w3.org/Graphics/SVG/1.1/DTD/svg11.dtd">
<svg version="1.1" id="Layer_1" xmlns="http://www.w3.org/2000/svg" xmlns:xlink="http://www.w3.org/1999/xlink" x="0px" y="0px"
	 width="555px" height="200px" viewBox="0 0 555 200" enable-background="new 0 0 555 200" xml:space="preserve">
<g>
	<path fill="#AD551A" d="M95.59,72.504c0.006-8.47,5.498-15.332,12.266-15.327c6.77,0.005,12.254,6.874,12.246,15.344L95.59,72.504z
		"/>
	<path fill="#AD551A" d="M64.707,72.502c0.006-8.47,5.498-15.332,12.266-15.327c6.77,0.004,12.252,6.873,12.246,15.343
		L64.707,72.502z"/>
	<rect x="26.42" y="122" fill="#FFFFFF" width="14" height="10"/>
	<path fill="#E07F2F" d="M44.076,153.137C62.393,164.76,85.155,171,109.664,171c59.652,0,77.938,0,77.938,0s93.301-1,94.286-100
		H0.682c0,20,4.689,36.533,12.917,50.658l47.684,0.918C61.282,122.576,62.24,141.311,44.076,153.137z"/>
	<circle fill="#FFFFFF" cx="64.858" cy="95.071" r="14.923"/>
	<circle fill="#332F25" cx="64.708" cy="93.137" r="6.095"/>
	<path fill="#E07F2F" d="M109.527,156.268c13.42,8.51,12.261,18.971,6.493,28.062c-5.767,9.092-19.978,18.453-33.396,9.941
		L109.527,156.268z"/>
	<path fill="#E07F2F" d="M67.814,151.771c13.42,8.51,12.26,18.971,6.493,28.062c-5.767,9.093-19.979,18.453-33.397,9.941
		L67.814,151.771z"/>
	<path fill="#E07F2F" d="M311.814,143.128c-6.102,14.672-18.738,14.424-31.106,9.278c-12.371-5.146-27.513-19.012-21.409-33.684
		L311.814,143.128z"/>
	<path fill="#E07F2F" d="M287.63,166.264c-6.101,14.672-18.739,14.424-31.106,9.279c-12.371-5.146-27.513-19.012-21.408-33.684
		L287.63,166.264z"/>
	<path fill="#AD551A" d="M291.852,90.872c0,0,25.541,40.951,75.077,55.358c49.537,14.408,79.7-25.307,79.7-25.307
		s-21.797-16.402-9.688-45.024l5.283,1.102c-9.248,48.215,41.611,62.085,67.371,53.062c25.76-9.025,73.975-68.916,15.191-112.507
		c-58.785-43.593-111.625,11.889-138.045,35.667s-91.396,18.008-93.791,17.833C293.611,81.846,291.852,90.872,291.852,90.872z"/>
</g>
</svg>
